<?xml version="1.0" encoding="UTF-8"?>
<!-- Created with Inkscape (http://www.inkscape.org/) -->
<svg width="256" height="256" version="1.1" viewBox="0 0 67.7 67.7" xmlns="http://www.w3.org/2000/svg" xmlns:cc="http://creativecommons.org/ns#" xmlns:dc="http://purl.org/dc/elements/1.1/" xmlns:rdf="http://www.w3.org/1999/02/22-rdf-syntax-ns#" xmlns:xlink="http://www.w3.org/1999/xlink">
 <title>SaveSeaFromNuc-pollutedWater</title>
 <defs>
  <linearGradient id="linearGradient1187">
   <stop stop-color="#b3b3b3" offset="0"/>
   <stop stop-color="#656565" offset="1"/>
  </linearGradient>
  <radialGradient id="radialGradient1826" cx="29.8" cy="46.7" r="29.4" gradientTransform="matrix(.148 .989 -1 .149 78.7 6.25)" gradientUnits="userSpaceOnUse">
   <stop stop-color="#00ff23" offset="0"/>
   <stop stop-color="#00ffb3" offset=".401"/>
   <stop stop-color="#0ff" stop-opacity=".5" offset="1"/>
  </radialGradient>
  <linearGradient id="linearGradient1189" x1="18" x2="24.4" y1="24.1" y2="24.1" gradientTransform="translate(0 -3.18)" gradientUnits="userSpaceOnUse" xlink:href="#linearGradient1187"/>
  <linearGradient id="linearGradient1224" x1="18" x2="24.4" y1="24.1" y2="24.1" gradientTransform="matrix(.667 0 0 .75 14.5 4.96)" gradientUnits="userSpaceOnUse" xlink:href="#linearGradient1187"/>
  <linearGradient id="linearGradient1260" x1="18" x2="24.4" y1="24.1" y2="24.1" gradientTransform="matrix(.667 0 0 .75 22.9 5.49)" gradientUnits="userSpaceOnUse" xlink:href="#linearGradient1187"/>
 </defs>
 <g transform="translate(-1.08 -2.91)">
  <g>
   <rect x="18" y="16.7" width="6.35" height="8.47" rx="2.48" ry="1.13" fill="url(#linearGradient1189)" stroke-width=".236"/>
   <rect x="26.5" y="19.8" width="4.23" height="6.35" rx="1.65" ry=".845" fill="url(#linearGradient1224)" stroke-width=".167"/>
   <rect x="35" y="20.4" width="4.23" height="6.35" rx="1.65" ry=".845" fill="url(#linearGradient1260)" stroke-width=".167"/>
   <path d="m35 7.14a25.4 25.4 0 0 0-25.4 25.4 25.4 25.4 0 0 0 25.4 25.4 25.4 25.4 0 0 0 25.4-25.4 25.4 25.4 0 0 0-25.4-25.4zm0 4.23a21.2 21.2 0 0 1 21.2 21.2 21.2 21.2 0 0 1-21.2 21.2 21.2 21.2 0 0 1-21.2-21.2 21.2 21.2 0 0 1 21.2-21.2z" fill="#bc002d" stroke-width=".265"/>
   <path d="m15.6 24.1a21.2 21.2 0 0 0-0.622 1.59 21.2 21.2 0 0 0-0.499 1.68 21.2 21.2 0 0 0-0.359 1.71 21.2 21.2 0 0 0-0.217 1.74 21.2 21.2 0 0 0-0.0724 1.75 21.2 21.2 0 0 0 0.0724 1.75 21.2 21.2 0 0 0 0.217 1.74 21.2 21.2 0 0 0 0.359 1.71 21.2 21.2 0 0 0 0.499 1.68 21.2 21.2 0 0 0 0.636 1.63 21.2 21.2 0 0 0 0.768 1.57 21.2 21.2 0 0 0 0.896 1.5 21.2 21.2 0 0 0 1.02 1.42 21.2 21.2 0 0 0 1.13 1.33 21.2 21.2 0 0 0 1.24 1.24 21.2 21.2 0 0 0 1.33 1.13 21.2 21.2 0 0 0 0.322 0.23h21.1v-25.4z" fill="#999" stroke-width=".265"/>
   <rect x="35" y="24.1" width="8.47" height="25.4" fill="#4d4d4d" stroke-width=".132"/>
   <rect transform="rotate(45)" x="45.5" y="-23.3" width="4.23" height="43.1" fill="#bc002d" stroke-width=".265"/>
  </g>
  <g transform="matrix(.265 0 0 .265 34.4 35.2)" fill="#ff0" style="shape-inside:url(#rect1346);white-space:pre" aria-label="☢️">
   <path d="m-41.7-14.5q-0.82 0-1.39-0.574t-0.574-1.39q0-0.82 0.574-1.39 0.574-0.574 1.39-0.574 0.82 0 1.39 0.574 0.574 0.574 0.574 1.39 0 0.82-0.574 1.39-0.574 0.574-1.39 0.574zm-5.52-11.6q-0.164-0.273-0.479-0.342-0.314-0.082-0.574 0.0957-2.21 1.49-3.62 3.86-1.41 2.37-1.6 5.18-0.0137 0.328 0.205 0.561 0.219 0.232 0.533 0.232h7.26q0.342 0 0.369-0.342 0.082-0.752 0.451-1.39 0.383-0.643 0.984-1.07 0.273-0.191 0.109-0.479zm11.1 0q0.15-0.273 0.465-0.342 0.314-0.082 0.588 0.0957 2.21 1.49 3.62 3.86 1.41 2.37 1.59 5.18 0.0273 0.328-0.191 0.561-0.219 0.232-0.547 0.232h-7.26q-0.328 0-0.369-0.342-0.0684-0.752-0.451-1.39-0.383-0.643-0.971-1.07-0.273-0.191-0.109-0.479zm-4.1 12.7q-0.684 0.314-1.44 0.314t-1.42-0.314q-0.314-0.137-0.479 0.164l-3.62 6.29q-0.164 0.273-0.082 0.574 0.0957 0.314 0.383 0.451 1.19 0.588 2.5 0.902 1.31 0.314 2.72 0.314t2.72-0.314q1.33-0.314 2.5-0.902 0.287-0.137 0.383-0.451 0.0957-0.301-0.0684-0.574l-3.64-6.29q-0.164-0.301-0.465-0.164zm-16.2-3.13q0 3.06 1.15 5.74 1.15 2.68 3.17 4.7 2.04 2.04 4.72 3.19 2.68 1.15 5.74 1.15t5.74-1.15q2.68-1.15 4.7-3.19 2.04-2.02 3.19-4.7 1.15-2.68 1.15-5.74t-1.15-5.74q-1.15-2.68-3.19-4.7-2.02-2.04-4.7-3.19-2.68-1.15-5.74-1.15t-5.74 1.15q-2.68 1.15-4.72 3.19-2.02 2.02-3.17 4.7-1.15 2.68-1.15 5.74zm14.8-12.8q2.65 0 4.98 0.998 2.32 0.998 4.09 2.76 1.76 1.75 2.75 4.07 0.998 2.32 0.998 4.98t-0.998 4.98q-0.984 2.32-2.75 4.09-1.76 1.75-4.09 2.75-2.32 0.998-4.98 0.998t-4.98-0.998q-2.31-0.998-4.07-2.75-1.76-1.76-2.76-4.09-0.998-2.32-0.998-4.98t0.998-4.98q0.998-2.32 2.76-4.07 1.76-1.76 4.07-2.76 2.32-0.998 4.98-0.998z"/>
  </g>
  <path d="m36.6 41.3c-0.64 0-1.19 0.0416-1.65 0.179v6.96c0.125 0.182 0.153 0.35 0.181 0.519 0.0502 0.301 0.1 0.603 0 1.05-0.0439 0.197-0.116 0.423-0.176 0.717-1.18 0.328-2.26 0.676-3.14 1.01-2.41 0.929-3.31 1.78-5.15 2.16-1.83 0.377-4.59 0.276-6.9-0.377-2.31-0.653-4.17-1.86-6.23-2.26s-4.32-1.19e-4 -5.32 1.1c-1 1.1-0.753 2.91-0.0749 4.67 0.678 1.76 1.78 3.46 2.59 4.54 0.804 1.08 1.31 1.53 2.49 2.08 1.18 0.552 3.04 1.2 5.85 1.43s6.58 0.025 8.89 0.301c2.31 0.276 3.16 1.03 6.75 1.53s9.92 0.754 13.3 0.528c3.39-0.226 3.84-0.929 4.8-1.23 0.954-0.301 2.41-0.201 3.74-0.276 1.33-0.0754 2.54-0.327 2.86-0.854s-0.226-1.33-0.954-1.86c-0.728-0.527-1.63-0.779-1.03-1.31s2.71-1.33 4.49-2.51 3.24-2.74 3.92-4.24c0.678-1.51 0.578-2.96-0.402-4.27-0.979-1.31-2.84-2.46-4.54-1.96-1.71 0.502-3.26 2.66-4.92 2.96s-3.41-1.25-5.75-2.08c-0.712-0.253-1.48-0.437-2.29-0.559-0.161-0.371-0.227-0.783-0.292-1.17-0.1-0.603-0.2-1.15-0.476-1.58-0.276-0.427-0.728-0.728-0.979-1.23-0.251-0.502-0.302-1.21-0.678-1.76-0.376-0.552-1.08-0.954-1.63-1.26-0.552-0.301-0.974-0.512-2.04-0.658s-2.83-0.246-4.23-0.296c-0.352-0.0126-0.681-0.0222-0.989-0.0222z" fill="url(#radialGradient1826)" stroke-width=".265"/>
 </g>
 <metadata>
  <rdf:RDF>
   <cc:Work rdf:about="">
    <cc:license rdf:resource="http://creativecommons.org/licenses/by-nc-sa/4.0/"/>
    <dc:title>SaveSeaFromNuc-pollutedWater</dc:title>
    <dc:date>2023-08-29</dc:date>
    <dc:creator>
     <cc:Agent>
      <dc:title>PJ568</dc:title>
     </cc:Agent>
    </dc:creator>
   </cc:Work>
   <cc:License rdf:about="http://creativecommons.org/licenses/by-nc-sa/4.0/">
    <cc:permits rdf:resource="http://creativecommons.org/ns#Reproduction"/>
    <cc:permits rdf:resource="http://creativecommons.org/ns#Distribution"/>
    <cc:requires rdf:resource="http://creativecommons.org/ns#Notice"/>
    <cc:requires rdf:resource="http://creativecommons.org/ns#Attribution"/>
    <cc:prohibits rdf:resource="http://creativecommons.org/ns#CommercialUse"/>
    <cc:permits rdf:resource="http://creativecommons.org/ns#DerivativeWorks"/>
    <cc:requires rdf:resource="http://creativecommons.org/ns#ShareAlike"/>
   </cc:License>
  </rdf:RDF>
 </metadata>
</svg>
