<?xml version="1.0" encoding="UTF-8" standalone="no"?>
<!-- Created with Inkscape (http://www.inkscape.org/) -->

<svg
   width="1024"
   height="1024"
   viewBox="0 0 270.9333 270.9333"
   version="1.1"
   id="svg5"
   inkscape:version="1.2.1 (9c6d41e410, 2022-07-14)"
   sodipodi:docname="Hamud-Lang.svg"
   xml:space="preserve"
   inkscape:export-filename="Hamud-Lang-196.png"
   inkscape:export-xdpi="18.375"
   inkscape:export-ydpi="18.375"
   xmlns:inkscape="http://www.inkscape.org/namespaces/inkscape"
   xmlns:sodipodi="http://sodipodi.sourceforge.net/DTD/sodipodi-0.dtd"
   xmlns:xlink="http://www.w3.org/1999/xlink"
   xmlns="http://www.w3.org/2000/svg"
   xmlns:svg="http://www.w3.org/2000/svg"
   xmlns:rdf="http://www.w3.org/1999/02/22-rdf-syntax-ns#"
   xmlns:cc="http://creativecommons.org/ns#"
   xmlns:dc="http://purl.org/dc/elements/1.1/"><title
     id="title1101">Hamud-Lang</title><sodipodi:namedview
     id="namedview7"
     pagecolor="#ffffff"
     bordercolor="#000000"
     borderopacity="0.25"
     inkscape:showpageshadow="2"
     inkscape:pageopacity="0.0"
     inkscape:pagecheckerboard="0"
     inkscape:deskcolor="#d1d1d1"
     inkscape:document-units="mm"
     showgrid="false"
     inkscape:zoom="0.45254834"
     inkscape:cx="47.508737"
     inkscape:cy="562.37086"
     inkscape:window-width="1440"
     inkscape:window-height="878"
     inkscape:window-x="-6"
     inkscape:window-y="-6"
     inkscape:window-maximized="1"
     inkscape:current-layer="layer3" /><defs
     id="defs2"><linearGradient
       inkscape:collect="always"
       id="linearGradient3437"><stop
         style="stop-color:#ffffff;stop-opacity:1;"
         offset="0"
         id="stop3433" /><stop
         style="stop-color:#ffffff;stop-opacity:0;"
         offset="1"
         id="stop3435" /></linearGradient><rect
       x="205.50291"
       y="373.44077"
       width="689.42911"
       height="386.69902"
       id="rect2342" /><linearGradient
       inkscape:collect="always"
       id="linearGradient1711"><stop
         style="stop-color:#6973b8;stop-opacity:1;"
         offset="0.2"
         id="stop1707" /><stop
         style="stop-color:#96b111;stop-opacity:1;"
         offset="0.34999999"
         id="stop1738" /><stop
         style="stop-color:#96b012;stop-opacity:1;"
         offset="0.64999998"
         id="stop772" /><stop
         style="stop-color:#ba745f;stop-opacity:1;"
         offset="0.80000001"
         id="stop1709" /></linearGradient><linearGradient
       inkscape:collect="always"
       xlink:href="#linearGradient1711"
       id="linearGradient1713"
       x1="137.39323"
       y1="268.35532"
       x2="136.80858"
       y2="1.7539562"
       gradientUnits="userSpaceOnUse" /><linearGradient
       inkscape:collect="always"
       xlink:href="#linearGradient3437"
       id="linearGradient3439"
       x1="216.87695"
       y1="519.88852"
       x2="698.25195"
       y2="519.88852"
       gradientUnits="userSpaceOnUse" /></defs><g
     inkscape:groupmode="layer"
     id="layer2"
     inkscape:label="背景"
     style="display:inline"
     sodipodi:insensitive="true"><rect
       style="opacity:1;fill:url(#linearGradient1713);fill-opacity:1;stroke-width:0.232657"
       id="rect1645"
       width="270.93332"
       height="270.93332"
       x="0"
       y="0"
       inkscape:label="方"
       sodipodi:insensitive="true" /></g><g
     inkscape:groupmode="layer"
     id="layer3"
     inkscape:label="文字"
     style="display:inline"
     sodipodi:insensitive="true"><g
       aria-label="حامود"
       transform="matrix(0.26458333,0,0,0.26458333,16.569015,-4.0550085)"
       id="text2340"
       style="font-size:256px;font-family:'Smiley Sans';-inkscape-font-specification:'Smiley Sans';white-space:pre;shape-inside:url(#rect2342);display:inline;opacity:1;fill:#750810"
       inkscape:label="حامود"
       sodipodi:insensitive="true"><path
         d="m 697.75195,568.20102 h -144.375 v -21.75 h 101.875 q -12.75,-9.875 -21.5,-15.375 -10.875,-6.875 -19.875,-10 -10.125,-3.5 -20.5,-3.5 -6.375,0 -12.875,0.875 3.625,-9.25 9.5,-14.875 8.5,-8.125 21.5,-8.125 12.75,0 30.125,12.5 8.625,6.25 28.125,23.75 15.125,13.625 20.5,14.75 h 7.5 z"
         id="path821"
         inkscape:label="5" /><path
         d="m 562.12695,568.20102 h -17.5 q -8.5,0 -13.625,-6.875 -4.5,-6 -6.875,-17.875 -2.25,-11.875 -3.5,-29.25 -0.75,-14.125 -1.625,-29 -0.75,-14.875 -2.125,-22.5 -1.25,-7.75 -3.5,-12.625 -2.75,-6 -7.625,-10.5 l 15.375,-24.25 q 4.875,15 6.875,35.875 1.25,13 2.5,61.5 2.25,22.25 6.5,28.5 3.5,5.25 7.625,5.25 h 17.5 z"
         id="path823"
         inkscape:label="4"
         sodipodi:insensitive="true" /><path
         d="m 503.37695,568.20102 h -13 q -8.375,0 -18.875,-3.75 -12.125,-4.375 -21.375,-12 -7.25,8.875 -14.875,12.375 -7.5,3.375 -22,3.375 h -19.5 v -21.75 h 19.125 q 11.375,0 20.25,-5.75 6.875,-4.5 12.5,-12.625 7.625,-11 18.75,-19.125 10,-7.25 18.375,-9.25 8.625,13.125 13.75,23.625 6.875,14.25 6.875,23.125 z m -14.375,-24.625 q -1.625,-7.25 -5,-14.25 -2.875,-5.875 -7.625,-12.125 -6,1.5 -10.125,5.625 -2.75,2.625 -6.5,8.875 4.5,4.875 12.625,8.75 8.25,3.875 15.5,4.75 z"
         id="path825"
         inkscape:label="3"
         sodipodi:insensitive="true" /><path
         d="m 402.50195,560.70102 q 0,20.625 -15.25,41 -17,22.75 -39.25,22.75 -8.25,0 -17,-1.875 -6.375,-1.375 -16.625,-4.75 -8.125,-2.875 -16.25,-5.625 l 2.125,-4.375 q 7,1.625 14.625,3.375 7.75,1.875 13.875,1.875 15.25,0 28.875,-7.75 10.625,-6.125 21.25,-17.75 5.375,-5.875 15.25,-19.125 -16.875,0 -25.25,-5.375 -9.5,-6.125 -9.5,-20.125 0,-12.875 6,-23.875 7,-12.75 17.75,-12.75 10.875,0 15.625,12.625 3.75,9.875 3.75,27.5 z m -7.875,-13.625 q -2.75,-12 -6.625,-16.625 -3.375,-4 -8.25,-4 -3.5,0 -6.125,2.375 -2.5,2.25 -2.5,5.75 0,6.125 5.5,9.375 5.5,3.125 18,3.125 z"
         id="path827"
         inkscape:label="2"
         sodipodi:insensitive="true" /><path
         d="m 291.87695,568.20102 h -56 q -7.125,0 -12.875,-4.125 -5.625,-4.125 -5.625,-9.75 0,-4.75 0.5,-8.625 0.5,-3.875 1.875,-8.5 h 2.875 q 1.375,5.125 5,7.375 3,1.875 8.25,1.875 h 48.375 q 0,-22.375 -6.25,-36 -7.75,-17 -25.875,-22.625 l 1.875,-24.25 q 21.625,10.625 30.625,33.875 7.25,18.75 7.25,49 z"
         id="path829"
         inkscape:label="1"
         sodipodi:insensitive="true" /></g></g><metadata
     id="metadata1099"><rdf:RDF><cc:Work
         rdf:about=""><cc:license
           rdf:resource="http://creativecommons.org/licenses/by-nc-sa/4.0/" /><dc:creator><cc:Agent><dc:title>PJ568</dc:title></cc:Agent></dc:creator><dc:rights><cc:Agent><dc:title>PJ568</dc:title></cc:Agent></dc:rights><dc:publisher><cc:Agent><dc:title>PJ568</dc:title></cc:Agent></dc:publisher><dc:language>Hamud</dc:language><dc:title>Hamud-Lang</dc:title></cc:Work><cc:License
         rdf:about="http://creativecommons.org/licenses/by-nc-sa/4.0/"><cc:permits
           rdf:resource="http://creativecommons.org/ns#Reproduction" /><cc:permits
           rdf:resource="http://creativecommons.org/ns#Distribution" /><cc:requires
           rdf:resource="http://creativecommons.org/ns#Notice" /><cc:requires
           rdf:resource="http://creativecommons.org/ns#Attribution" /><cc:prohibits
           rdf:resource="http://creativecommons.org/ns#CommercialUse" /><cc:permits
           rdf:resource="http://creativecommons.org/ns#DerivativeWorks" /><cc:requires
           rdf:resource="http://creativecommons.org/ns#ShareAlike" /></cc:License></rdf:RDF></metadata></svg>
