<?xml version="1.0" encoding="UTF-8"?>
<!-- Created with Inkscape (http://www.inkscape.org/) -->
<svg width="1024" height="1024" version="1.1" viewBox="0 0 271 271" xml:space="preserve" xmlns="http://www.w3.org/2000/svg" xmlns:cc="http://creativecommons.org/ns#" xmlns:dc="http://purl.org/dc/elements/1.1/" xmlns:rdf="http://www.w3.org/1999/02/22-rdf-syntax-ns#" xmlns:xlink="http://www.w3.org/1999/xlink"><title>Hamud-Lang</title><defs><linearGradient id="linearGradient1713" x1="137" x2="137" y1="268" y2="1.75" gradientUnits="userSpaceOnUse"><stop stop-color="#6973b8" offset=".2"/><stop stop-color="#96b111" offset=".35"/><stop stop-color="#96b012" offset=".65"/><stop stop-color="#ba745f" offset=".8"/></linearGradient></defs><g><rect width="271" height="271" fill="url(#linearGradient1713)" stroke-width=".233"/><g transform="matrix(.265 0 0 .265 16.6 -4.06)" fill="#750810" style="shape-inside:url(#rect2342);white-space:pre" aria-label="حامود"><path d="m698 568h-144v-21.8h102q-12.8-9.88-21.5-15.4-10.9-6.88-19.9-10-10.1-3.5-20.5-3.5-6.38 0-12.9 0.875 3.62-9.25 9.5-14.9 8.5-8.12 21.5-8.12 12.8 0 30.1 12.5 8.62 6.25 28.1 23.8 15.1 13.6 20.5 14.8h7.5z"/><path d="m562 568h-17.5q-8.5 0-13.6-6.88-4.5-6-6.88-17.9-2.25-11.9-3.5-29.2-0.75-14.1-1.62-29-0.75-14.9-2.12-22.5-1.25-7.75-3.5-12.6-2.75-6-7.62-10.5l15.4-24.2q4.88 15 6.88 35.9 1.25 13 2.5 61.5 2.25 22.2 6.5 28.5 3.5 5.25 7.62 5.25h17.5z"/><path d="m503 568h-13q-8.38 0-18.9-3.75-12.1-4.38-21.4-12-7.25 8.88-14.9 12.4-7.5 3.38-22 3.38h-19.5v-21.8h19.1q11.4 0 20.2-5.75 6.88-4.5 12.5-12.6 7.62-11 18.8-19.1 10-7.25 18.4-9.25 8.62 13.1 13.8 23.6 6.88 14.2 6.88 23.1zm-14.4-24.6q-1.62-7.25-5-14.2-2.88-5.88-7.62-12.1-6 1.5-10.1 5.62-2.75 2.62-6.5 8.88 4.5 4.88 12.6 8.75 8.25 3.88 15.5 4.75z"/><path d="m403 561q0 20.6-15.2 41-17 22.8-39.2 22.8-8.25 0-17-1.88-6.38-1.38-16.6-4.75-8.12-2.88-16.2-5.62l2.12-4.38q7 1.62 14.6 3.38 7.75 1.88 13.9 1.88 15.2 0 28.9-7.75 10.6-6.12 21.2-17.8 5.38-5.88 15.2-19.1-16.9 0-25.2-5.38-9.5-6.12-9.5-20.1 0-12.9 6-23.9 7-12.8 17.8-12.8 10.9 0 15.6 12.6 3.75 9.88 3.75 27.5zm-7.88-13.6q-2.75-12-6.62-16.6-3.38-4-8.25-4-3.5 0-6.12 2.38-2.5 2.25-2.5 5.75 0 6.12 5.5 9.38 5.5 3.12 18 3.12z"/><path d="m292 568h-56q-7.12 0-12.9-4.12-5.62-4.12-5.62-9.75 0-4.75 0.5-8.62t1.88-8.5h2.88q1.38 5.12 5 7.38 3 1.88 8.25 1.88h48.4q0-22.4-6.25-36-7.75-17-25.9-22.6l1.88-24.2q21.6 10.6 30.6 33.9 7.25 18.8 7.25 49z"/></g></g><metadata><rdf:RDF><cc:Work rdf:about=""><cc:license rdf:resource="http://creativecommons.org/licenses/by-nc-sa/4.0/"/><dc:creator><cc:Agent><dc:title>PJ568</dc:title></cc:Agent></dc:creator><dc:rights><cc:Agent><dc:title>PJ568</dc:title></cc:Agent></dc:rights><dc:publisher><cc:Agent><dc:title>PJ568</dc:title></cc:Agent></dc:publisher><dc:language>Hamud</dc:language><dc:title>Hamud-Lang</dc:title></cc:Work><cc:License rdf:about="http://creativecommons.org/licenses/by-nc-sa/4.0/"><cc:permits rdf:resource="http://creativecommons.org/ns#Reproduction"/><cc:permits rdf:resource="http://creativecommons.org/ns#Distribution"/><cc:requires rdf:resource="http://creativecommons.org/ns#Notice"/><cc:requires rdf:resource="http://creativecommons.org/ns#Attribution"/><cc:prohibits rdf:resource="http://creativecommons.org/ns#CommercialUse"/><cc:permits rdf:resource="http://creativecommons.org/ns#DerivativeWorks"/><cc:requires rdf:resource="http://creativecommons.org/ns#ShareAlike"/></cc:License></rdf:RDF></metadata></svg>
