<?xml version="1.0" encoding="UTF-8"?>
<!-- Created with Inkscape (http://www.inkscape.org/) -->
<svg width="48" height="48" version="1.1" viewBox="0 0 12.7 12.7" xmlns="http://www.w3.org/2000/svg" xmlns:cc="http://creativecommons.org/ns#" xmlns:dc="http://purl.org/dc/elements/1.1/" xmlns:rdf="http://www.w3.org/1999/02/22-rdf-syntax-ns#">
 <title>568Tools</title>
 <g transform="matrix(1.0039 0 0 1.0039 -3.3154 .61495)">
  <circle cx="9.6275" cy="5.7126" r="6.3251" fill="#0277bd" stroke-width=".28825"/>
 </g>
 <path transform="matrix(1.0039 0 0 1.0039 -3.3154 .61495)" d="m9.8241-0.60893c-0.014876 0.014612-0.029314 0.030229-0.042209 0.047871-0.057275 0.080014-0.09651 0.18759-0.11839 0.32274-0.022123 0.13377-0.031141 0.29122-0.026252 0.47304 0.00241 0.086635 0.00747 0.17139 0.014927 0.25428 0.00746 0.082892 0.019722 0.15987 0.036546 0.23112 0.018208 0.071008 0.043256 0.13229 0.075152 0.18376 0.03328 0.051229 0.075339 0.08893 0.12663 0.11273 0.05267 0.023554 0.1174 0.028844 0.19354 0.015442 0.06783-0.01194 0.12479-0.037066 0.17089-0.075152 0.0461-0.038086 0.08269-0.084708 0.11015-0.13949 0.02885-0.05503 0.04934-0.11349 0.06125-0.17553 0.0133-0.062283 0.02026-0.12367 0.0211-0.18376 0.0012-0.07442-6e-3 -0.14497-0.02213-0.21207-0.01471-0.067343-0.03876-0.12501-0.07155-0.17347-0.03165-0.050089-0.07074-0.087684-0.11788-0.11221-0.04713-0.024528-0.10191-0.03104-0.1642-0.020075-0.05122 0.009016-0.09728 0.028894-0.13744 0.060224-0.039007 0.029703-0.069369 0.066791-0.091616 0.11067-0.0052-0.21602 0.00927-0.37243 0.043753-0.46841 0.035624-0.097611 0.083058-0.15166 0.14258-0.16214 0.03599-0.006336 0.06642-0.001312 0.09059 0.014413 0.02418 0.015725 0.04268 0.037249 0.05611 0.064857 0.01456 0.02598 0.02554 0.051911 0.03294 0.077725l0.18273-0.06846c-0.01105-0.046579-0.03147-0.093989-0.06125-0.14155-1.25e-4 -2.1058e-4 -3.89e-4 -3.0452e-4 -5.15e-4 -5.1473e-4a6.3251 6.3251 0 0 0-0.50547-0.036032zm-0.45709 0.037061-0.59607 0.10501-0.00309 0.90594 0.15288 0.005662c0.0076-0.054143 0.024481-0.099317 0.050959-0.13538 0.027862-0.036303 0.063638-0.058332 0.10655-0.065886 0.033223-0.005848 0.063704 0.001359 0.091623 0.022134 0.027919 0.020775 0.050949 0.059652 0.06949 0.11633 0.01854 0.056678 0.028407 0.13625 0.02934 0.23884 0.00199 0.11668-0.010407 0.20893-0.037061 0.27641-0.026896 0.066104-0.074236 0.10491-0.14207 0.11685-0.056756 0.0099907-0.1022-0.0075696-0.13589-0.053018-0.033933-0.046833-0.056116-0.10504-0.066916-0.1745l-0.18222 0.057651c0.017534 0.12393 0.059347 0.22051 0.1256 0.28877 0.066249 0.068261 0.15823 0.091746 0.2759 0.071034 0.13428-0.023637 0.23045-0.09112 0.28928-0.20281 0.058591-0.11307 0.084248-0.25734 0.076181-0.43289-0.0064392-0.17441-0.04016-0.30716-0.10037-0.39789-0.05883-0.090975-0.14354-0.12656-0.25428-0.10707-0.035992 0.0063356-0.068398 0.019158-0.0978 0.038605-0.028018 0.019204-0.051914 0.041654-0.071549 0.067945l0.00515-0.48025 0.40716-0.071549zm1.2513 0.038091c-0.0075 0.044668-0.01106 0.092134-0.0077 0.14361 0.0053 0.078982 0.02815 0.14599 0.06795 0.20178 0.03979 0.055792 0.08876 0.095971 0.14722 0.11993-0.06728 0.047522-0.11969 0.11405-0.15751 0.1992-0.03806 0.083768-0.05415 0.18133-0.04736 0.29289 0.01003 0.16236 0.05548 0.28147 0.13589 0.35723 0.08017 0.074373 0.18339 0.10041 0.30936 0.07824 0.1232-0.021687 0.21674-0.082502 0.28053-0.18222 0.06494-0.10134 0.09239-0.23347 0.08236-0.39583-6e-3 -0.09885-0.03345-0.18159-0.08236-0.24862-0.04777-0.06866-0.10546-0.11644-0.17295-0.1431 0.0597-0.041907 0.10657-0.09866 0.14104-0.17038 0.01397-0.029825 0.0222-0.061496 0.02934-0.093682a6.3251 6.3251 0 0 0-0.19457-0.051474c-3.75e-4 0.051958-0.0068 0.10112-0.02522 0.14464-0.02307 0.055439-0.06183 0.087782-0.11582 0.097286-0.05399 0.009503-0.09689-0.008355-0.1292-0.054048-0.03255-0.047076-0.0523-0.10653-0.05919-0.1781-0.0021-0.030426 5.5e-5 -0.056216 0.0021-0.081843a6.3251 6.3251 0 0 0-0.20384-0.035517zm-2.1248 0.094197-0.20795 0.037061 0.058165 1.6297c0.00314 0.090788-3.128e-4 0.16148-0.00978 0.2131-0.00784 0.052759-0.026162 0.090511-0.055077 0.11273-0.030299 0.02246-0.074988 0.035292-0.13435 0.038605l-0.00412 0.20847c0.10764-0.00468 0.19179-0.026073 0.25222-0.063828 0.061816-0.037998 0.10447-0.097798 0.12868-0.17913 0.024461-0.079947 0.034792-0.18501 0.03037-0.31553zm-0.786 0.1467c-0.024927 7.158e-4 -0.05228 0.005233-0.07927 0.008751a6.3251 6.3251 0 0 0-0.3634 0.13126l0.057651 1.6492 0.20795-0.036546-0.025737-0.74019 0.12457-0.022134c0.10496-0.019904 0.19609-0.054909 0.27281-0.10552 0.077863-0.05224 0.13692-0.11697 0.17758-0.19406 0.040419-0.078474 0.058646-0.16754 0.054048-0.26663-0.0070147-0.16146-0.057564-0.27741-0.15133-0.34796-0.07051-0.053952-0.16225-0.079415-0.27487-0.076181zm0.026252 0.20641c0.034948 0.0059792 0.065172 0.019242 0.090079 0.03912 0.050954 0.038128 0.078596 0.10181 0.082873 0.19097 0.00411 0.096325-0.018577 0.17465-0.067945 0.23472-0.048227 0.058441-0.12958 0.098999-0.24399 0.12199l-0.097285 0.019045-0.020589-0.57857 0.13692-0.024193c0.04499-0.0079195 0.084986-0.0090676 0.11993-0.0030884zm3.2706 0.10861c0.06091-0.010722 0.1106 0.011235 0.14876 0.065886 0.03955 0.054407 0.06221 0.13005 0.06794 0.22751 0.0075 0.11571-0.0051 0.20296-0.03758 0.26149-0.03251 0.058529-0.07707 0.092957-0.13383 0.10295-0.05814 0.010234-0.1079-0.007404-0.14876-0.053018-0.04085-0.045614-0.06505-0.12622-0.07258-0.24193-0.0062-0.10023 0.0056-0.1829 0.03552-0.2481 0.02991-0.065207 0.07685-0.10358 0.14052-0.11479zm1.4042 0.00978 0.02007 0.5657 0.20744-0.036546-0.01441-0.41951a6.3251 6.3251 0 0 0-0.2131-0.10964zm-2.3786 0.086476c0.0526-0.00926 0.09461 0.003042 0.12611 0.036032 0.03264 0.031362 0.0564 0.076068 0.07103 0.13486 0.01439 0.057409 0.02068 0.12054 0.01853 0.18942-4.3e-4 0.054309-0.0059 0.10838-0.01647 0.16163-0.01085 0.051862-0.02936 0.096389-0.05559 0.13383-0.02623 0.037443-0.06444 0.060717-0.11427 0.06949-0.04291 0.007554-0.080174-0.003752-0.11118-0.033973-0.029869-0.031849-0.05312-0.07707-0.070519-0.13538-0.016015-0.05855-0.02517-0.12476-0.026766-0.19869-5.444e-4 -0.059846 0.00419-0.115 0.013898-0.16523 0.010851-0.051862 0.029656-0.094365 0.056621-0.12765 0.026722-0.034675 0.062928-0.056301 0.10861-0.064342zm3.3695 0.51731c-0.0051 0.00589-0.0084 0.013943-0.01441 0.018531-0.0303 0.02246-0.0755 0.035292-0.13486 0.038605l-0.0036 0.20847c0.10764-0.004676 0.19128-0.026073 0.25171-0.063828 0.02892-0.017775 0.05292-0.041204 0.07361-0.06846a6.3251 6.3251 0 0 0-0.17245-0.13332zm-7.5785 0.030884a6.3251 6.3251 0 0 0-0.69541 0.60893c-0.00364 0.037518-0.00766 0.074999-0.00515 0.11633 0.010027 0.16236 0.055477 0.28147 0.13589 0.35723 0.08017 0.074373 0.18339 0.10041 0.30936 0.07824 0.1232-0.021687 0.21674-0.082501 0.28053-0.18222 0.064937-0.10134 0.092385-0.23296 0.082358-0.39532-0.0059829-0.09885-0.033452-0.1821-0.082358-0.24913-0.047766-0.06866-0.10546-0.11644-0.17295-0.1431 0.059701-0.041907 0.10657-0.09866 0.14104-0.17038 0.00308-0.006577 0.00394-0.013898 0.00669-0.02059zm-0.31708 0.32377c0.060909-0.010722 0.1106 0.011235 0.14876 0.065886 0.039548 0.054407 0.062206 0.13056 0.067945 0.22803 0.00752 0.11571-0.00506 0.20244-0.037576 0.26097-0.032512 0.058529-0.077075 0.092957-0.13383 0.10295-0.05814 0.010234-0.1079-0.0074037-0.14876-0.053018-0.040855-0.045614-0.065055-0.12622-0.072578-0.24193-0.0062267-0.10023 0.0056068-0.1829 0.035517-0.2481s0.076846-0.10358 0.14052-0.11479zm8.3305 0.32017c-0.03204-0.00364-0.06779-0.00219-0.10655 0.00463-0.09967 0.017545-0.17864 0.066442-0.23729 0.1467-0.05728 0.080014-0.09703 0.18759-0.1189 0.32274-0.02212 0.13377-0.03063 0.29174-0.02574 0.47356 0.0024 0.086635 0.0075 0.17139 0.01493 0.25428 0.0075 0.082892 0.01972 0.15987 0.03655 0.23112 0.01821 0.071009 0.04326 0.13229 0.07515 0.18376 0.03328 0.051229 0.07534 0.088415 0.12662 0.11221 0.05267 0.023554 0.11689 0.028844 0.19303 0.015442 0.06783-0.01194 0.12479-0.037066 0.17089-0.075152 0.0461-0.038086 0.08321-0.084193 0.11067-0.13898 0.02885-0.055029 0.04934-0.114 0.06125-0.17604 0.0133-0.062283 0.02027-0.12316 0.0211-0.18325 0.0012-0.07442-0.0066-0.14549-0.02265-0.21259-0.01471-0.067343-0.03824-0.12501-0.07103-0.17347-0.03165-0.050089-0.07126-0.08717-0.11839-0.1117-0.04713-0.024528-0.10191-0.031555-0.1642-0.02059-0.05122 0.00902-0.09677 0.029409-0.13692 0.060739-0.03901 0.029703-0.06938 0.066276-0.09162 0.11015-0.0052-0.21602 0.0093-0.37191 0.04375-0.4679 0.03562-0.097611 0.08306-0.15166 0.14258-0.16214 0.03599-0.00634 0.06642-0.00183 0.09059 0.013898 0.02418 0.015725 0.04268 0.037764 0.05611 0.065372 0.01456 0.02598 0.02555 0.051396 0.03294 0.077211l0.18273-0.06846c-0.01105-0.046579-0.03147-0.093475-0.06125-0.14104-0.0284-0.047807-0.06776-0.086078-0.11839-0.11427-0.02532-0.014097-0.05392-0.022614-0.08596-0.026252zm-0.75872 0.14104-0.59607 0.10501-0.0031 0.90594 0.15288 0.00515c0.0076-0.054143 0.02448-0.099317 0.05096-0.13538 0.02786-0.036303 0.06312-0.058333 0.10604-0.065886 0.03322-0.00585 0.06422 0.00187 0.09214 0.022648 0.02792 0.020775 0.05095 0.059652 0.06949 0.11633 0.01854 0.056678 0.02841 0.13625 0.02934 0.23884 2e-3 0.11668-0.01041 0.20841-0.03706 0.2759-0.0269 0.066104-0.07424 0.10542-0.14207 0.11736-0.05676 0.00999-0.1022-0.00808-0.13589-0.053533-0.03393-0.046833-0.05612-0.10452-0.06692-0.17398l-0.18273 0.057651c0.01753 0.12393 0.05986 0.21999 0.12611 0.28825 0.06625 0.068261 0.15772 0.092261 0.27538 0.071549 0.13428-0.023637 0.23096-0.091635 0.2898-0.20332 0.05859-0.11307 0.08373-0.25734 0.07567-0.43289-0.0064-0.17441-0.03965-0.30716-0.09986-0.39789-0.05883-0.090975-0.14354-0.12656-0.25428-0.10707-0.03599 0.00634-0.06891 0.019158-0.09832 0.038605-0.02802 0.019204-0.0514 0.042169-0.07103 0.06846l0.0051-0.48077 0.40716-0.071549zm-8.1334 0.014927a6.3251 6.3251 0 0 0-0.43392 0.53842c0.02414-8.55e-5 0.048035 1.407e-4 0.075152-0.00463 0.06783-0.01194 0.12479-0.037066 0.17089-0.075152 0.046102-0.038086 0.082691-0.084708 0.11015-0.13949 0.028847-0.05503 0.04934-0.11349 0.061254-0.17553 0.010393-0.048674 0.013688-0.096277 0.016472-0.14361zm9.3862 0.014413c-0.0087 0.047096-0.01282 0.09703-0.0093 0.15185 0.0053 0.078982 0.02764 0.1465 0.06743 0.20229 0.03979 0.055792 0.08928 0.095456 0.14773 0.11942-0.06728 0.047522-0.12021 0.11405-0.15802 0.1992-0.03806 0.083768-0.05363 0.18133-0.04684 0.29289 0.01003 0.16236 0.05548 0.28147 0.13589 0.35723 0.08017 0.074373 0.18339 0.10041 0.30936 0.07824 0.1232-0.021687 0.21622-0.082502 0.28002-0.18222 0.02564-0.040021 0.0437-0.085839 0.05765-0.13538a6.3251 6.3251 0 0 0-0.19972-0.32583c0.0072 0.031174 0.01426 0.062801 0.01647 0.10037 0.0075 0.11571-0.0045 0.20296-0.03706 0.26149-0.03251 0.058529-0.07759 0.092442-0.13435 0.10243-0.05814 0.010234-0.10739-0.0074-0.14824-0.053018-0.04086-0.045614-0.06506-0.12622-0.07258-0.24193-0.0062-0.10023 0.0056-0.1829 0.03552-0.2481 0.02991-0.065207 0.07685-0.10358 0.14052-0.11479 0.02667-0.0047 0.05027-1.206e-4 0.07258 0.00772a6.3251 6.3251 0 0 0-0.45706-0.57187zm-2.1269 0.10295-0.20744 0.036546 0.05765 1.6297c0.0031 0.090788 2.02e-4 0.162-0.0093 0.21362-0.0078 0.052759-0.02616 0.089997-0.05508 0.11221-0.0303 0.02246-0.07499 0.035807-0.13435 0.03912l-0.0041 0.20795c0.10764-0.00468 0.19179-0.025558 0.25222-0.063313 0.06182-0.037998 0.10447-0.097798 0.12868-0.17913 0.02446-0.079947 0.03479-0.18501 0.03037-0.31553zm-0.78549 0.1467c-0.03754 0.00108-0.0772 0.00544-0.11942 0.012868l-0.32634 0.057136 0.06074 1.7192 0.20795-0.036546-0.02574-0.74071 0.12457-0.021619c0.10496-0.019904 0.19609-0.055424 0.27281-0.10604 0.07786-0.05224 0.13692-0.11697 0.17758-0.19406 0.04042-0.078474 0.05813-0.16703 0.05353-0.26612-7e-3 -0.16146-0.05705-0.27741-0.15082-0.34796-0.07051-0.053953-0.16225-0.079415-0.27487-0.076181zm0.02625 0.20641c0.03495 0.00598 0.06517 0.018728 0.09008 0.038605 0.05095 0.038128 0.07859 0.10181 0.08287 0.19097 0.0041 0.096325-0.01858 0.17465-0.06795 0.23472-0.04823 0.058441-0.12958 0.098999-0.24399 0.12199l-0.09728 0.01956-0.02059-0.57908 0.13692-0.023678c0.04499-0.00792 0.08498-0.00907 0.11993-0.00309zm-1.8108 0.10655c-0.025897-1.688e-4 -0.05295 0.00221-0.081328 0.00721-0.11351 0.019982-0.20052 0.072772-0.26097 0.15905-0.059068 0.086039-0.084513 0.1933-0.076181 0.32171 0.00534 0.078982 0.028154 0.1465 0.067945 0.20229 0.039792 0.055792 0.088764 0.095456 0.14722 0.11942-0.067276 0.047522-0.11969 0.11405-0.15751 0.1992-0.03806 0.083768-0.053633 0.18133-0.046841 0.29289 0.010027 0.16236 0.054963 0.28147 0.13538 0.35723 0.08017 0.074373 0.18339 0.10041 0.30936 0.07824 0.1232-0.021687 0.21674-0.081987 0.28053-0.1817 0.064937-0.10134 0.092385-0.23347 0.082358-0.39583-6e-3 -0.09885-0.033451-0.18159-0.082358-0.24862-0.047766-0.068663-0.10546-0.11645-0.17295-0.1431 0.059701-0.041907 0.10708-0.09866 0.14155-0.17038 0.034229-0.073103 0.047466-0.15361 0.040664-0.2409-0.0097159-0.12816-0.051932-0.22328-0.12714-0.28568-0.055368-0.046984-0.12203-0.070527-0.19972-0.071034zm4.1071 0.098315c0.0526-0.00926 0.09461 0.00253 0.12611 0.035517 0.03264 0.031362 0.0564 0.076583 0.07103 0.13538 0.01439 0.057409 0.02068 0.12054 0.01853 0.18942-4.3e-4 0.054309-0.0064 0.10787-0.01699 0.16111-0.01085 0.051862-0.02936 0.096389-0.05559 0.13383-0.02623 0.037443-0.06392 0.060717-0.11376 0.06949-0.04291 0.00755-0.08017-0.00375-0.11118-0.033973-0.02987-0.031849-0.05312-0.07707-0.07052-0.13538-0.01602-0.05855-0.02517-0.12476-0.02677-0.19869-5.44e-4 -0.059846 0.0042-0.11448 0.0139-0.16472 0.01085-0.051862 0.02966-0.094879 0.05662-0.12817 0.02672-0.034675 0.06293-0.055786 0.10861-0.063827zm-5.0105 0.067431c-0.032038-0.00364-0.067276-0.00219-0.10604 0.00463-0.099669 0.017545-0.17864 0.066442-0.23729 0.1467-0.057275 0.080014-0.097025 0.18759-0.1189 0.32274-0.022123 0.13377-0.030626 0.29174-0.025737 0.47356 0.00241 0.086635 0.00696 0.17139 0.014413 0.25428 0.00746 0.082892 0.019722 0.15987 0.036546 0.23112 0.018208 0.071009 0.043256 0.13229 0.075152 0.18376 0.03328 0.051229 0.075854 0.08893 0.12714 0.11273 0.05267 0.023554 0.11689 0.028329 0.19303 0.014927 0.06783-0.01194 0.12479-0.037066 0.17089-0.075152 0.046102-0.038086 0.082691-0.084194 0.11015-0.13898 0.028847-0.055029 0.04934-0.11349 0.061254-0.17553 0.013299-0.062283 0.020264-0.12367 0.021104-0.18376 0.00117-0.07442-0.00604-0.14497-0.022134-0.21207-0.014709-0.067343-0.038756-0.12552-0.071549-0.17398-0.031652-0.050089-0.070742-0.08717-0.11788-0.1117-0.047133-0.024528-0.10191-0.031555-0.1642-0.020589-0.051219 0.00902-0.096765 0.029408-0.13692 0.060739-0.039014 0.029703-0.069891 0.066277-0.092138 0.11015-0.0052-0.21602 0.00927-0.37191 0.043753-0.4679 0.035624-0.097611 0.083573-0.15166 0.1431-0.16214 0.035992-0.00634 0.065903-0.00183 0.090079 0.013898 0.024176 0.015725 0.043198 0.037764 0.056621 0.065372 0.014564 0.02598 0.025545 0.051911 0.032943 0.077725l0.18273-0.068975c-0.011053-0.046576-0.031473-0.093471-0.061253-0.14104-0.028396-0.047807-0.068272-0.085563-0.1189-0.11376-0.025316-0.014097-0.053923-0.023129-0.085961-0.026766zm0.84057 0.018016c0.04845-0.00853 0.089167 0.0065 0.12302 0.044782 0.034996 0.036655 0.05567 0.095159 0.061254 0.17553 0.00689 0.071574-0.00204 0.13544-0.026252 0.19251-0.023066 0.055439-0.061314 0.088297-0.1153 0.0978-0.053987 0.0095-0.097409-0.00887-0.12971-0.054562-0.032549-0.047076-0.052304-0.10653-0.059195-0.1781-0.00558-0.080367 0.00311-0.14356 0.026252-0.19045 0.022901-0.048274 0.063178-0.077515 0.11993-0.087505zm-1.5993 0.12302-0.59555 0.10501-0.0036 0.90594 0.15288 0.00515c0.0076-0.054143 0.024996-0.099317 0.051474-0.13538 0.027862-0.036303 0.063123-0.058333 0.10604-0.065886 0.033223-0.00585 0.063704 0.00187 0.091623 0.022649 0.027919 0.020775 0.05095 0.059652 0.06949 0.11633 0.01854 0.056678 0.028407 0.13625 0.02934 0.23884 0.00199 0.11668-0.010407 0.20841-0.037061 0.2759-0.026898 0.066104-0.074237 0.10542-0.14207 0.11736-0.056756 0.00999-0.10169-0.00757-0.13538-0.053018-0.033937-0.046836-0.056635-0.10504-0.067434-0.1745l-0.18222 0.057651c0.017534 0.12393 0.059347 0.21999 0.1256 0.28825 0.066249 0.068261 0.15823 0.092261 0.2759 0.071549 0.13428-0.023637 0.23096-0.091635 0.2898-0.20332 0.058592-0.11307 0.083734-0.25734 0.075666-0.43289-0.0064391-0.17441-0.039645-0.30665-0.099859-0.39738-0.05883-0.090975-0.14354-0.12707-0.25428-0.10758-0.035992 0.00634-0.068913 0.019158-0.098315 0.038605-0.028018 0.019204-0.051914 0.042169-0.071548 0.06846l0.0051468-0.48025 0.40716-0.072063zm-0.87351 0.13229-0.20744 0.036546 0.057651 1.6297c0.00314 0.090788-3.129e-4 0.162-0.00978 0.21362-0.00784 0.052759-0.026162 0.090512-0.055077 0.11273-0.030299 0.02246-0.074988 0.035293-0.13435 0.038605l-0.0041182 0.20795c0.10764-0.0046765 0.19179-0.025558 0.25222-0.063313 0.061816-0.037998 0.10498-0.097798 0.1292-0.17913 0.024461-0.079947 0.034277-0.18501 0.029855-0.31553zm-0.78549 0.1467c-0.037541 0.00108-0.077713 0.00544-0.11993 0.012868l-0.32583 0.057136 0.060739 1.7192 0.20744-0.036546-0.025222-0.74071 0.12457-0.021619c0.10496-0.019904 0.19557-0.055424 0.2723-0.10604 0.077863-0.05224 0.13744-0.11697 0.1781-0.19406 0.040419-0.078474 0.058131-0.16703 0.053533-0.26612-0.0070146-0.16146-0.057564-0.27741-0.15133-0.34796-0.070509-0.053952-0.16173-0.079415-0.27436-0.076181zm0.026252 0.20641c0.034948 0.00598 0.064658 0.018727 0.089564 0.038605 0.050954 0.038128 0.078596 0.10181 0.082873 0.19097 0.00411 0.096325-0.018577 0.17465-0.067945 0.23472-0.048227 0.058441-0.12958 0.098999-0.24399 0.12199l-0.097285 0.01956-0.020589-0.57857 0.13744-0.024193c0.044989-0.00792 0.084986-0.00907 0.11993-0.00309zm-1.8108 0.10655c-0.025898-1.688e-4 -0.052951 0.00221-0.081329 0.00721-0.11351 0.019981-0.20052 0.073286-0.26097 0.15957-0.059068 0.086039-0.084513 0.19279-0.076181 0.3212 0.00534 0.078982 0.027639 0.1465 0.067431 0.20229 0.039792 0.055792 0.089278 0.09597 0.14773 0.11993-0.067276 0.047522-0.12021 0.11354-0.15802 0.19869-0.03806 0.083768-0.053633 0.18133-0.046841 0.29289 0.010027 0.16236 0.055477 0.28147 0.13589 0.35723 0.08017 0.074373 0.18287 0.10041 0.30884 0.07824 0.1232-0.021691 0.21674-0.08199 0.28053-0.18171 0.064937-0.10134 0.092385-0.23347 0.082358-0.39583-0.005983-0.09885-0.033452-0.18159-0.082358-0.24862-0.047766-0.06866-0.10495-0.11644-0.17244-0.1431 0.059701-0.041907 0.10657-0.09866 0.14104-0.17038 0.034229-0.073103 0.047981-0.15309 0.041179-0.24038-0.0097158-0.12816-0.052447-0.22379-0.12766-0.28619-0.055368-0.046984-0.12151-0.070527-0.1992-0.071034zm5.081 0.00154c0.060909-0.010722 0.1106 0.011235 0.14876 0.065887 0.039548 0.054407 0.062206 0.13056 0.067945 0.22803 0.00752 0.11571-0.00506 0.20296-0.037576 0.26149-0.032513 0.058529-0.077076 0.092442-0.13383 0.10243-0.05814 0.010234-0.1079-0.0074-0.14876-0.053018-0.040854-0.045611-0.065055-0.12622-0.072578-0.24192-0.0062267-0.10023 0.0056068-0.1829 0.035517-0.2481 0.02991-0.065207 0.076846-0.10358 0.14052-0.11479zm-0.97388 0.096771c0.052603-0.00926 0.094614 0.00253 0.12611 0.035517 0.032637 0.031362 0.055888 0.076583 0.070519 0.13538 0.014387 0.057409 0.020677 0.12054 0.01853 0.18942-4.304e-4 0.054309-0.00586 0.10787-0.016472 0.16111-0.010851 0.051862-0.029357 0.096903-0.055592 0.13435-0.026234 0.037443-0.064437 0.060202-0.11427 0.068975-0.042913 0.00755-0.079659-0.00375-0.11067-0.033973-0.029867-0.031845-0.053633-0.076551-0.071032-0.13486-0.016015-0.05855-0.024655-0.12527-0.026252-0.1992-5.443e-4 -0.059846 0.00367-0.11448 0.013383-0.16472 0.010851-0.051862 0.030171-0.094365 0.057136-0.12766 0.026722-0.034675 0.062928-0.056301 0.10861-0.064342zm-4.1704 0.085447c0.04845-0.00853 0.089682 0.0065 0.12354 0.044782 0.034996 0.036655 0.055155 0.095159 0.060739 0.17553 0.00689 0.071574-0.00153 0.13596-0.025737 0.19303-0.023066 0.055439-0.061829 0.087782-0.11582 0.097285-0.053987 0.0095-0.096894-0.00887-0.1292-0.054562-0.032549-0.047076-0.052305-0.10601-0.059195-0.17758-0.00558-0.080367 0.00311-0.14408 0.026252-0.19097 0.022901-0.048274 0.062663-0.077515 0.11942-0.087506zm-0.64908 0.10604a6.3251 6.3251 0 0 0-0.091623 0.22031l0.16626-0.062283c-0.011054-0.046579-0.031473-0.093989-0.061254-0.14155-0.00367-0.00618-0.00934-0.010619-0.013383-0.016472zm11.798 0.43032c-0.0837 0.021988-0.15207 0.067127-0.20384 0.13795-0.05727 0.080014-0.09703 0.18759-0.1189 0.32274-0.02212 0.13377-0.03063 0.29174-0.02574 0.47356 0.0024 0.086635 7e-3 0.17139 0.01441 0.25428 0.0075 0.082892 0.01972 0.15987 0.03655 0.23112 0.01821 0.071008 0.04326 0.13229 0.07515 0.18376 0.03328 0.051229 0.07585 0.08893 0.12714 0.11273 0.05267 0.023554 0.11689 0.02833 0.19303 0.014927 0.06783-0.01194 0.12479-0.036551 0.17089-0.074637 0.02079-0.017178 0.0391-0.037076 0.05611-0.057651a6.3251 6.3251 0 0 0-0.1431-0.95999c-0.02999-0.0049-0.06157-0.00559-0.09626 5.148e-4 -0.05122 0.00902-0.09676 0.029408-0.13692 0.060739-0.03902 0.029703-0.06989 0.066277-0.09214 0.11015-0.0052-0.21602 0.0098-0.37191 0.04427-0.4679 0.03562-0.097611 0.08306-0.15166 0.14258-0.16214 0.0054-9.572e-4 0.0098-6.11e-5 0.01493-5.147e-4a6.3251 6.3251 0 0 0-0.058165-0.17964zm-11.955 0.095226c-0.0128-0.00159-0.02755 0.00119-0.041179 0.00154a6.3251 6.3251 0 0 0-0.056106 0.18119c0.037109 1.799e-4 0.069776 0.00891 0.094197 0.034487 0.032637 0.031362 0.056403 0.076583 0.071034 0.13538 0.014387 0.057409 0.020677 0.12054 0.018531 0.18942-4.304e-4 0.054309-0.00638 0.10838-0.016986 0.16163-0.010851 0.051862-0.029358 0.096389-0.055592 0.13383-0.026234 0.037443-0.063922 0.060203-0.11376 0.068975-0.042913 0.00755-0.080174-0.00375-0.11118-0.033973-0.013356-0.014242-0.025169-0.031941-0.036032-0.051474a6.3251 6.3251 0 0 0-0.042209 0.24553c0.00712 0.00407 0.013088 0.0099 0.02059 0.013383 0.05267 0.023554 0.11689 0.028329 0.19303 0.014927 0.06783-0.01194 0.12479-0.036551 0.17089-0.074637 0.046102-0.038086 0.083206-0.084708 0.11067-0.13949 0.028847-0.055029 0.04934-0.11349 0.061254-0.17553 0.013299-0.062283 0.020264-0.12367 0.021104-0.18376 0.00117-0.07442-0.00656-0.14497-0.022648-0.21207-0.01471-0.067337-0.038242-0.12552-0.071035-0.17398-0.031652-0.050089-0.071256-0.08717-0.11839-0.1117-0.023567-0.012264-0.048825-0.020287-0.076181-0.023678zm11.336 0.032428-0.59555 0.10501-0.0036 0.90594 0.15288 0.00515c0.0076-0.054143 0.025-0.099317 0.05147-0.13538 0.02786-0.036303 0.06312-0.057818 0.10604-0.065372 0.03322-0.00585 0.0637 0.00136 0.09162 0.022134 0.02792 0.020775 0.05146 0.059653 0.07001 0.11633 0.01854 0.056678 0.02789 0.13625 0.02882 0.23884 2e-3 0.11668-0.01041 0.20893-0.03706 0.27641-0.0269 0.066104-0.07424 0.10491-0.14207 0.11685-0.05676 0.00999-0.10169-0.00757-0.13538-0.053018-0.03393-0.046833-0.05663-0.10504-0.06743-0.1745l-0.18222 0.057651c0.01753 0.12393 0.05935 0.21999 0.1256 0.28825 0.06625 0.068261 0.15824 0.092261 0.2759 0.071548 0.13428-0.023636 0.23096-0.091634 0.2898-0.20332 0.05859-0.11307 0.08373-0.25734 0.07567-0.43289-0.0064-0.17441-0.03965-0.30665-0.09986-0.39738-0.05883-0.090974-0.14354-0.12707-0.25428-0.10758-0.03599 0.00634-0.06891 0.019673-0.09832 0.03912-0.02802 0.019204-0.05191 0.041654-0.07155 0.067945l0.0057-0.48025 0.40664-0.071549zm-10.491 0.053018c0.060909-0.010722 0.11008 0.011235 0.14824 0.065886 0.039548 0.054407 0.062206 0.13005 0.067945 0.22751 0.00752 0.11571-0.00506 0.20296-0.037576 0.26149-0.032513 0.058529-0.077076 0.092957-0.13383 0.10295-0.05814 0.010234-0.10739-0.00792-0.14824-0.053533-0.040855-0.045614-0.065055-0.12622-0.072578-0.24193-0.00623-0.10023 0.00561-0.1829 0.035517-0.2481 0.02991-0.065207 0.076846-0.10306 0.14052-0.11427zm9.6174 0.07927-0.20744 0.036546 0.05765 1.6297c0.0031 0.090788-3.13e-4 0.162-0.0098 0.21362-0.0078 0.052759-0.02616 0.090511-0.05508 0.11273-0.0303 0.02246-0.07499 0.035292-0.13435 0.038605l-0.0041 0.20847c0.10764-0.00468 0.19179-0.026073 0.25222-0.063827 0.06182-0.037998 0.10498-0.097798 0.1292-0.17913 0.02446-0.079947 0.03428-0.18501 0.02985-0.31553zm-0.78549 0.1467c-0.03754 0.00108-0.07771 0.00544-0.11993 0.012868l-0.32583 0.057136 0.06074 1.7192 0.20744-0.036546-0.02522-0.74071 0.12457-0.021619c0.10496-0.019904 0.19557-0.055424 0.2723-0.10604 0.07786-0.05224 0.13744-0.11697 0.1781-0.19406 0.04042-0.078474 0.05813-0.16703 0.05353-0.26612-7e-3 -0.16146-0.05756-0.27741-0.15133-0.34796-0.07051-0.053953-0.16173-0.079415-0.27436-0.076181zm0.02625 0.20641c0.03495 0.00598 0.06466 0.019242 0.08957 0.03912 0.05095 0.038128 0.07859 0.10129 0.08287 0.19045 0.0041 0.096325-0.01858 0.17465-0.06795 0.23472-0.04823 0.058441-0.12958 0.099514-0.24399 0.12251l-0.09728 0.019045-0.02008-0.57857 0.13692-0.024193c0.04499-0.00792 0.08499-0.00907 0.11993-0.00309zm-1.8108 0.10655c-0.0259-1.689e-4 -0.05295 0.00221-0.08133 0.00721-0.11351 0.019981-0.20052 0.073286-0.26097 0.15957-0.05907 0.086039-0.08451 0.1933-0.07618 0.32171 0.0053 0.078982 0.02764 0.14599 0.06743 0.20178 0.03979 0.055792 0.08928 0.095971 0.14773 0.11993-0.06728 0.047522-0.12021 0.11354-0.15802 0.19869-0.03806 0.083768-0.05363 0.18185-0.04684 0.2934 0.01003 0.16236 0.05548 0.28096 0.13589 0.35671 0.08017 0.074373 0.18287 0.10093 0.30884 0.078755 0.1232-0.021687 0.21674-0.082502 0.28053-0.18222 0.06494-0.10134 0.09239-0.23347 0.08236-0.39583-6e-3 -0.09885-0.03345-0.18159-0.08236-0.24862-0.04777-0.06866-0.10495-0.11644-0.17244-0.1431 0.0597-0.041907 0.10657-0.098659 0.14104-0.17038 0.03423-0.073103 0.04798-0.15309 0.04118-0.24038-0.0097-0.12816-0.05193-0.22379-0.12714-0.28619-0.05537-0.046984-0.12203-0.070527-0.19972-0.071034zm4.1071 0.098315c0.0526-0.00926 0.09461 0.00253 0.12611 0.035517 0.03264 0.031362 0.05589 0.076582 0.07052 0.13538 0.01439 0.057409 0.02068 0.12054 0.01853 0.18942-4.3e-4 0.054309-0.0059 0.10838-0.01647 0.16163-0.01085 0.051862-0.02936 0.096389-0.05559 0.13383-0.02623 0.037443-0.06444 0.060203-0.11427 0.068975-0.04291 0.00755-0.07966-0.00375-0.11067-0.033973-0.02987-0.031849-0.05363-0.076555-0.07103-0.13486-0.01602-0.05855-0.02466-0.12476-0.02625-0.19869-5.44e-4 -0.059846 0.0037-0.115 0.01338-0.16523 0.01085-0.051862 0.03017-0.094365 0.05714-0.12766 0.02672-0.034675 0.06293-0.056301 0.10861-0.064342zm-5.0105 0.067431c-0.03204-0.00364-0.06779-0.00219-0.10655 0.00463-0.09967 0.017545-0.17864 0.066442-0.23729 0.1467-0.05728 0.080014-0.09703 0.18759-0.1189 0.32274-0.02212 0.13377-0.03063 0.29174-0.02574 0.47356 0.0024 0.086635 0.0075 0.17139 0.01493 0.25428 0.0075 0.082892 0.01972 0.15987 0.03655 0.23112 0.01821 0.071009 0.04326 0.13229 0.07515 0.18376 0.03328 0.051229 0.07534 0.08893 0.12662 0.11273 0.05267 0.023554 0.11689 0.02833 0.19303 0.014927 0.06783-0.01194 0.12479-0.036551 0.17089-0.074637 0.0461-0.038086 0.08321-0.084708 0.11067-0.13949 0.02885-0.055029 0.04934-0.11349 0.06125-0.17553 0.0133-0.062283 0.02026-0.12367 0.0211-0.18376 0.0012-0.07442-0.0066-0.14497-0.02265-0.21207-0.01471-0.067343-0.03824-0.12552-0.07103-0.17398-0.03165-0.050089-0.07126-0.08717-0.11839-0.1117-0.04713-0.024528-0.10191-0.031555-0.1642-0.020589-0.05122 0.00902-0.09677 0.029408-0.13692 0.060739-0.03901 0.029703-0.06938 0.066276-0.09162 0.11015-0.0052-0.21602 0.0093-0.37191 0.04375-0.4679 0.03562-0.097611 0.08306-0.15166 0.14258-0.16214 0.03599-0.00634 0.06642-0.00131 0.09059 0.014413 0.02418 0.015725 0.04268 0.037249 0.05611 0.064857 0.01456 0.02598 0.02555 0.051911 0.03294 0.077725l0.18273-0.06846c-0.01105-0.046579-0.03147-0.093989-0.06125-0.14155-0.0284-0.047807-0.06776-0.085563-0.11839-0.11376-0.02532-0.014097-0.05392-0.023129-0.08596-0.026766zm0.84005 0.018016c0.04845-0.00853 0.08968 0.0065 0.12354 0.044782 0.035 0.036655 0.05516 0.095159 0.06074 0.17553 0.0069 0.071574-0.0015 0.13596-0.02574 0.19303-0.02307 0.055439-0.06183 0.087782-0.11582 0.097285-0.05399 0.0095-0.09689-0.00836-0.1292-0.054047-0.03255-0.047076-0.0523-0.10653-0.05919-0.1781-0.0056-0.080367 0.0031-0.14408 0.02625-0.19097 0.0229-0.048274 0.06266-0.077515 0.11942-0.087505zm-1.5988 0.12302-0.59607 0.10501-0.00309 0.90594 0.15288 0.00515c0.0076-0.054143 0.024481-0.098802 0.050959-0.13486 0.027862-0.036303 0.063123-0.058333 0.10604-0.065886 0.033223-0.00585 0.064219 0.00136 0.092138 0.022134 0.027919 0.020775 0.050949 0.059653 0.06949 0.11633 0.01854 0.056678 0.028407 0.13625 0.02934 0.23884 0.00199 0.11668-0.010407 0.20893-0.037061 0.27641-0.026898 0.066104-0.074237 0.10491-0.14207 0.11685-0.056756 0.00999-0.1022-0.00757-0.13589-0.053018-0.033933-0.046833-0.056116-0.10504-0.066916-0.1745l-0.18273 0.057651c0.017534 0.12393 0.059347 0.21999 0.1256 0.28825 0.066249 0.068261 0.15823 0.092261 0.2759 0.071549 0.13428-0.023642 0.23096-0.091125 0.2898-0.20281 0.058591-0.11307 0.083734-0.25734 0.075666-0.43289-0.0064391-0.17441-0.039645-0.30716-0.099859-0.39789-0.05883-0.090974-0.14354-0.12656-0.25428-0.10707-0.035992 0.00634-0.068913 0.019158-0.098315 0.038605-0.028018 0.019204-0.0514 0.041654-0.071034 0.067945l0.00515-0.48025 0.40716-0.071549zm-0.87402 0.13229-0.20744 0.036546 0.057651 1.6297c0.00314 0.090788 2.019e-4 0.162-0.00927 0.21362-0.00784 0.052759-0.026162 0.090511-0.055077 0.11273-0.030299 0.02246-0.074988 0.035292-0.13435 0.038605l-0.00412 0.20847c0.10764-0.00468 0.19179-0.026073 0.25222-0.063827 0.061816-0.037998 0.10447-0.097798 0.12868-0.17913 0.024461-0.079947 0.034792-0.18501 0.03037-0.31553zm-0.78549 0.1467c-0.037541 0.00108-0.077198 0.00544-0.11942 0.012868l-0.32634 0.057136 0.060739 1.7192 0.20795-0.036546-0.025737-0.74019 0.12457-0.022134c0.10496-0.019904 0.19609-0.055425 0.27281-0.10604 0.077863-0.05224 0.13692-0.11645 0.17758-0.19354 0.040419-0.078474 0.058131-0.16754 0.053533-0.26663-0.0070146-0.16146-0.057049-0.27741-0.15082-0.34796-0.070509-0.053952-0.16225-0.079415-0.27487-0.076181zm0.026252 0.20641c0.034948 0.00598 0.065172 0.019242 0.090079 0.03912 0.050954 0.038128 0.078596 0.10181 0.082873 0.19097 0.00411 0.096325-0.018577 0.17414-0.067945 0.23421-0.048227 0.058441-0.12958 0.099514-0.24399 0.12251l-0.097285 0.019045-0.020589-0.57857 0.13692-0.024193c0.04499-0.00792 0.084986-0.00907 0.11993-0.00309zm-1.8108 0.10655c-0.025898-1.689e-4 -0.052951 0.00221-0.081329 0.00721-0.11351 0.019981-0.20052 0.073286-0.26097 0.15957-0.059068 0.086039-0.084513 0.1933-0.076181 0.32171 0.00534 0.078982 0.028154 0.14599 0.067945 0.20178 0.039792 0.055792 0.088764 0.095971 0.14722 0.11993-0.067276 0.047522-0.11969 0.11405-0.15751 0.1992-0.03806 0.083768-0.053633 0.18133-0.046841 0.29289 0.010027 0.16236 0.054963 0.28147 0.13538 0.35723 0.08017 0.074373 0.18339 0.10041 0.30936 0.07824 0.1232-0.021691 0.21674-0.082505 0.28053-0.18222 0.064937-0.10134 0.092385-0.23347 0.082358-0.39583-0.0059829-0.09885-0.033452-0.18159-0.082358-0.24862-0.047766-0.06866-0.10546-0.11644-0.17295-0.1431 0.059701-0.041907 0.10708-0.098659 0.14155-0.17038 0.034229-0.073103 0.047466-0.15309 0.040664-0.24038-0.0097158-0.12816-0.051932-0.22379-0.12714-0.28619-0.055368-0.046984-0.12203-0.070527-0.19972-0.071034zm5.0815 0.00206c0.06091-0.010722 0.11008 0.011235 0.14824 0.065886 0.03955 0.054407 0.06221 0.13005 0.06794 0.22751 0.0075 0.11571-0.0045 0.20296-0.03706 0.26149-0.03251 0.058529-0.07759 0.092957-0.13435 0.10295-0.05814 0.010234-0.10739-0.0074-0.14824-0.053018-0.04086-0.045614-0.06506-0.12622-0.07258-0.24193-0.0062-0.10023 0.0056-0.18341 0.03552-0.24862 0.02991-0.065207 0.07685-0.10306 0.14052-0.11427zm-0.9744 0.096256c0.0526-0.00926 0.09462 0.00253 0.12611 0.035517 0.03264 0.031362 0.0564 0.076582 0.07103 0.13538 0.01439 0.057409 0.02068 0.12054 0.01853 0.18942-4.31e-4 0.054309-0.0064 0.10838-0.01699 0.16163-0.01085 0.051862-0.02936 0.096389-0.05559 0.13383-0.02623 0.037443-0.06392 0.060717-0.11376 0.06949-0.04291 0.00755-0.08017-0.00375-0.11118-0.033973-0.02987-0.031849-0.05363-0.07707-0.07103-0.13538-0.01601-0.05855-0.02465-0.12476-0.02625-0.19869-5.45e-4 -0.059846 0.0042-0.115 0.0139-0.16523 0.01085-0.051862 0.02966-0.094365 0.05662-0.12766 0.02672-0.034675 0.06293-0.056301 0.10861-0.064342zm-5.0105 0.067431c-0.032038-0.00364-0.067276-0.00168-0.10604 0.00515-0.099669 0.017545-0.17915 0.066442-0.23781 0.1467-0.057275 0.080014-0.09651 0.18759-0.11839 0.32274-0.022123 0.13377-0.030626 0.29122-0.025737 0.47304 0.00241 0.086635 0.00696 0.17139 0.014413 0.25428 0.00746 0.082892 0.019722 0.15987 0.036546 0.23112 0.018208 0.071009 0.043256 0.13229 0.075152 0.18376 0.03328 0.051229 0.075854 0.08893 0.12714 0.11273 0.05267 0.023554 0.11689 0.028844 0.19303 0.015442 0.06783-0.01194 0.12479-0.037066 0.17089-0.075152 0.046102-0.038086 0.082691-0.084708 0.11015-0.13949 0.028847-0.05503 0.04934-0.11349 0.061254-0.17553 0.013298-0.062286 0.020264-0.12368 0.021104-0.18377 0.0011718-0.07442-0.0060407-0.14497-0.022134-0.21207-0.014709-0.067343-0.038756-0.12501-0.071549-0.17347-0.031652-0.050089-0.070742-0.087684-0.11787-0.11221-0.047133-0.024528-0.10191-0.03104-0.1642-0.020075-0.051219 0.00902-0.096765 0.028894-0.13692 0.060224-0.039014 0.029703-0.069891 0.066791-0.092138 0.11067-0.0052-0.21602 0.00927-0.37243 0.043753-0.46841 0.035624-0.097611 0.083572-0.15166 0.1431-0.16214 0.035992-0.00634 0.065903-0.00131 0.090079 0.014413 0.024176 0.015725 0.043198 0.037249 0.056621 0.064857 0.014564 0.02598 0.025545 0.051911 0.032943 0.077725l0.18273-0.06846c-0.011053-0.046578-0.031473-0.093989-0.061254-0.14155-0.028396-0.047807-0.068272-0.085563-0.1189-0.11376-0.025316-0.014097-0.053923-0.023129-0.085961-0.026766zm0.84005 0.018016c0.04845-0.00853 0.089682 0.0065 0.12354 0.044782 0.034996 0.036655 0.05567 0.095159 0.061254 0.17553 0.00689 0.071574-0.00204 0.13596-0.026252 0.19303-0.023066 0.055439-0.061314 0.087782-0.1153 0.097285-0.053987 0.0095-0.097409-0.00836-0.12971-0.054047-0.032549-0.047076-0.052305-0.10653-0.059195-0.1781-0.00558-0.080367 0.00311-0.14408 0.026252-0.19097 0.0229-0.048274 0.062663-0.077515 0.11942-0.087505zm-1.5988 0.12302-0.59607 0.10501-0.00309 0.90594 0.15288 0.00566c0.0076-0.054143 0.024996-0.099317 0.051474-0.13538 0.027862-0.036303 0.063123-0.058333 0.10604-0.065886 0.033223-0.00585 0.063704 0.00136 0.091623 0.022134 0.027919 0.020775 0.05095 0.059653 0.06949 0.11633 0.01854 0.056678 0.028407 0.13625 0.02934 0.23884 0.00199 0.11668-0.010407 0.20893-0.037061 0.27641-0.026898 0.066104-0.074237 0.10491-0.14207 0.11685-0.056756 0.00999-0.10169-0.00757-0.13538-0.053018-0.033932-0.046831-0.05663-0.10504-0.067429-0.17449l-0.18222 0.057651c0.017534 0.12393 0.059347 0.21999 0.1256 0.28825 0.066249 0.068261 0.15823 0.092261 0.2759 0.071549 0.13428-0.023637 0.23096-0.09112 0.2898-0.20281 0.058592-0.11307 0.083734-0.25734 0.075666-0.43289-0.0064392-0.17441-0.039645-0.30716-0.099859-0.39789-0.05883-0.090974-0.14405-0.12656-0.2548-0.10707-0.035992 0.00634-0.068398 0.019158-0.0978 0.038605-0.028018 0.019204-0.051914 0.041654-0.071549 0.067945l0.00515-0.48025 0.40716-0.071549zm-0.87351 0.13229-0.20795 0.036546 0.058165 1.6302c0.00314 0.090788-3.128e-4 0.16148-0.00978 0.2131-0.00784 0.052759-0.026162 0.090511-0.055077 0.11273-0.014191 0.01052-0.031937 0.018388-0.052503 0.024707a6.3251 6.3251 0 0 0 0.068975 0.19817c0.036532-0.010273 0.070222-0.022726 0.097285-0.039634 0.061816-0.037998 0.10498-0.097798 0.1292-0.17913 0.024461-0.079947 0.034277-0.18501 0.029855-0.31553zm-0.59761 0.17604a6.3251 6.3251 0 0 0 0.071549 0.7999c0.045146-0.04107 0.08443-0.085795 0.11221-0.13846 0.040419-0.078474 0.058646-0.16754 0.054048-0.26663-0.0070146-0.16146-0.057564-0.27741-0.15133-0.34796-0.025881-0.019804-0.05492-0.034742-0.086476-0.046841zm3.1085 0.28568c0.060909-0.010722 0.1106 0.011235 0.14876 0.065886 0.039548 0.054407 0.062206 0.13005 0.067945 0.22751 0.00752 0.11571-0.00506 0.20296-0.037576 0.26149-0.032513 0.058529-0.077076 0.092957-0.13383 0.10295-0.05814 0.010234-0.1079-0.0074-0.14876-0.053018-0.040855-0.045614-0.065055-0.12622-0.072578-0.24193-0.00623-0.10023 0.00561-0.1829 0.035517-0.2481 0.02991-0.065207 0.076846-0.10358 0.14052-0.11479zm-0.97388 0.096256c0.052603-0.00926 0.094614 0.00304 0.12611 0.036032 0.032637 0.031362 0.055888 0.076068 0.070519 0.13486 0.014387 0.057409 0.020677 0.12054 0.018531 0.18942-4.304e-4 0.054309-0.00586 0.10838-0.016472 0.16163-0.010852 0.051862-0.029358 0.096388-0.055592 0.13383-0.026234 0.037443-0.064437 0.060717-0.11427 0.06949-0.042913 0.00755-0.079659-0.00375-0.11067-0.033973-0.029869-0.031849-0.053634-0.07707-0.071034-0.13538-0.016015-0.05855-0.024655-0.12476-0.026252-0.19869-5.443e-4 -0.059846 0.00367-0.115 0.013383-0.16523 0.010851-0.051862 0.030171-0.094365 0.057136-0.12766 0.026722-0.034675 0.062928-0.056301 0.10861-0.064342zm10.208 0.057651c-0.0259-1.688e-4 -0.05295 0.00273-0.08133 0.00772-0.11351 0.019981-0.20052 0.072772-0.26097 0.15905-0.05907 0.086039-0.08451 0.1933-0.07618 0.32171 0.0053 0.078983 0.02815 0.1465 0.06795 0.20229 0.03979 0.055792 0.08876 0.095456 0.14722 0.11942-0.06728 0.047522-0.11969 0.11405-0.15751 0.1992-0.03806 0.083768-0.05363 0.18133-0.04684 0.29289 0.01003 0.16236 0.05496 0.28147 0.13538 0.35723 0.035 0.03247 0.07517 0.053878 0.1189 0.067945a6.3251 6.3251 0 0 0 0.07-0.19045c-0.01537-0.00897-0.03129-0.016337-0.04478-0.031399-0.04085-0.045614-0.06505-0.12622-0.07258-0.24193-0.0062-0.10023 0.0056-0.1829 0.03552-0.2481 0.02991-0.065207 0.07685-0.10358 0.14052-0.11479 0.04956-0.00872 0.08955 0.010222 0.12405 0.044782a6.3251 6.3251 0 0 0 0.04633-0.17656c-3.55e-4 -1.416e-4 -6.74e-4 -3.743e-4 -1e-3 -5.148e-4 3.98e-4 -2.789e-4 6.34e-4 -7.492e-4 1e-3 -0.00103a6.3251 6.3251 0 0 0 0.10655-0.63879c-0.01537-0.021256-0.0325-0.040535-0.0525-0.057136-0.05537-0.046984-0.12203-0.071042-0.19972-0.071549zm-0.90336 0.16626c-0.03204-0.00364-0.06728-0.00219-0.10604 0.00463-0.09967 0.017545-0.17915 0.066442-0.23781 0.1467-0.05727 0.080014-0.09651 0.18759-0.11839 0.32274-0.02212 0.13377-0.03114 0.29174-0.02625 0.47356 0.0024 0.086635 0.0075 0.17139 0.01493 0.25428 0.0075 0.082892 0.01972 0.15987 0.03655 0.23112 0.01821 0.071008 0.04326 0.13229 0.07515 0.18376 0.03328 0.051229 0.07534 0.088415 0.12663 0.11221 0.05267 0.023554 0.1174 0.028844 0.19354 0.015442 0.06783-0.01194 0.12479-0.037066 0.17089-0.075152 0.0461-0.038086 0.08269-0.084193 0.11015-0.13898 0.02885-0.05503 0.04934-0.114 0.06125-0.17604 0.0133-0.062283 0.02026-0.12316 0.0211-0.18325 0.0012-0.07442-6e-3 -0.14549-0.02213-0.21259-0.01471-0.067343-0.03876-0.12501-0.07155-0.17347-0.03165-0.050089-0.07074-0.08717-0.11788-0.1117-0.04713-0.024528-0.10191-0.031555-0.1642-0.02059-0.05122 0.00902-0.09728 0.029408-0.13744 0.060739-0.03902 0.029703-0.06938 0.066277-0.09162 0.11015-0.0052-0.21602 0.0093-0.37191 0.04375-0.4679 0.03562-0.097611 0.08357-0.15166 0.1431-0.16214 0.03599-0.00634 0.0659-0.00183 0.09008 0.013898 0.02418 0.015725 0.04268 0.037249 0.05611 0.064857 0.01456 0.02598 0.02554 0.051911 0.03294 0.077725l0.18273-0.06846c-0.01105-0.046579-0.03147-0.093475-0.06125-0.14104-0.0284-0.047807-0.06776-0.086078-0.11839-0.11427-0.02532-0.014097-0.05392-0.022615-0.08596-0.026252zm0.84005 0.018016c0.04845-0.00853 0.08968 0.00598 0.12354 0.044267 0.035 0.036655 0.05516 0.095159 0.06074 0.17553 0.0069 0.071574-0.0015 0.13596-0.02574 0.19303-0.02307 0.055439-0.06183 0.088297-0.11582 0.0978-0.05399 0.0095-0.09689-0.00887-0.1292-0.054562-0.03255-0.047076-0.0523-0.10653-0.0592-0.1781-0.0056-0.080367 0.0031-0.14408 0.02625-0.19097 0.0229-0.048274 0.06266-0.077 0.11942-0.086991zm-1.5988 0.12302-0.59607 0.10501-0.0031 0.90594 0.15288 0.00515c0.0076-0.054143 0.02448-0.099317 0.05096-0.13538 0.02786-0.036303 0.06364-0.058332 0.10655-0.065887 0.03322-0.00585 0.0637 0.00187 0.09162 0.022649 0.02792 0.020775 0.05095 0.059138 0.06949 0.11582s0.02841 0.13676 0.02934 0.23935c2e-3 0.11668-0.01041 0.20841-0.03706 0.2759-0.0269 0.066104-0.07424 0.10542-0.14207 0.11736-0.05676 0.00999-0.10169-0.00808-0.13538-0.053533-0.03393-0.046833-0.05663-0.10452-0.06743-0.17398l-0.18222 0.057651c0.01753 0.12393 0.05935 0.21999 0.1256 0.28825 0.06625 0.068261 0.15824 0.091746 0.2759 0.071034 0.13428-0.023637 0.23045-0.09112 0.28928-0.20281 0.05859-0.11307 0.08425-0.25734 0.07618-0.43289-0.0064-0.17441-0.04016-0.30716-0.10037-0.39789-0.05883-0.090975-0.14354-0.12656-0.25428-0.10707-0.03599 0.00634-0.0684 0.019158-0.0978 0.038605-0.02802 0.019204-0.05191 0.042169-0.07155 0.06846l0.0051-0.48077 0.40716-0.071549zm-0.87351 0.13229-0.20795 0.036546 0.05817 1.6297c0.0031 0.090788-3.13e-4 0.162-0.0098 0.21362-0.0078 0.052759-0.02616 0.089997-0.05508 0.11221-0.0303 0.02246-0.07499 0.035293-0.13435 0.038605l-0.0041 0.20847c0.10764-0.00468 0.19179-0.025558 0.25222-0.063313 0.06182-0.037998 0.10498-0.097798 0.1292-0.17913 0.02446-0.079947 0.03428-0.18501 0.02986-0.31553zm-0.786 0.1467c-0.03754 0.00108-0.0772 0.00492-0.11942 0.012354l-0.32583 0.057651 0.06022 1.7192 0.20795-0.036546-0.02574-0.74071 0.12457-0.022134c0.10496-0.019904 0.19609-0.054909 0.27281-0.10552 0.07786-0.05224 0.13692-0.11697 0.17758-0.19406 0.04042-0.078474 0.05865-0.16703 0.05405-0.26612-0.007009-0.16147-0.057558-0.27793-0.15133-0.34848-0.07051-0.053952-0.16225-0.078901-0.27487-0.075666zm0.02625 0.20641c0.03495 0.00598 0.06517 0.018727 0.09008 0.038605 0.05096 0.038128 0.0786 0.10181 0.08287 0.19097 0.0041 0.096325-0.01858 0.17465-0.06794 0.23472-0.04823 0.058441-0.12958 0.098999-0.24399 0.12199l-0.09728 0.01956-0.02059-0.57908 0.13744-0.023678c0.04499-0.00792 0.08447-0.00907 0.11942-0.00309zm-1.8108 0.10655c-0.0259-1.688e-4 -0.05295 0.00221-0.08133 0.00721-0.11351 0.019981-0.20052 0.072772-0.26097 0.15905-0.05907 0.086039-0.084 0.1933-0.07567 0.32171 0.0053 0.078982 0.02764 0.1465 0.06743 0.20229 0.03979 0.055792 0.08876 0.095456 0.14722 0.11942-0.06728 0.047522-0.11969 0.11405-0.15751 0.1992-0.03806 0.083768-0.05363 0.18133-0.04684 0.29289 0.01003 0.16236 0.05548 0.28147 0.13589 0.35723 0.08017 0.074373 0.18287 0.10041 0.30884 0.07824 0.1232-0.021687 0.21674-0.082502 0.28053-0.18222 0.06494-0.10134 0.09238-0.23296 0.08236-0.39532-6e-3 -0.09885-0.03345-0.18159-0.08236-0.24862-0.04777-0.06866-0.10546-0.11644-0.17295-0.1431 0.0597-0.041907 0.10708-0.098659 0.14155-0.17038 0.03423-0.073103 0.04798-0.15361 0.04118-0.2409-0.0097-0.12816-0.05245-0.22328-0.12766-0.28568-0.05537-0.046984-0.12203-0.070527-0.19972-0.071034zm4.1071 0.098315c0.0526-0.00926 0.09461 0.00253 0.12611 0.035517 0.03264 0.031362 0.0564 0.076583 0.07103 0.13538 0.01439 0.057409 0.02068 0.12054 0.01853 0.18942-4.3e-4 0.054309-0.0059 0.10787-0.01647 0.16111-0.01085 0.051862-0.02936 0.096389-0.05559 0.13383-0.02623 0.037443-0.06444 0.060717-0.11427 0.06949-0.04291 0.00755-0.07966-0.00375-0.11067-0.033973-0.02987-0.031849-0.05363-0.07707-0.07103-0.13538-0.01601-0.05855-0.02517-0.12476-0.02677-0.19869-5.44e-4 -0.059846 0.0042-0.115 0.0139-0.16523 0.01085-0.051862 0.02966-0.094365 0.05662-0.12766 0.02672-0.034675 0.06293-0.055786 0.10861-0.063827zm-5.0105 0.067431c-0.032038-0.00364-0.067276-0.00219-0.10604 0.00463-0.099669 0.017545-0.17864 0.066442-0.23729 0.1467-0.057275 0.080014-0.097025 0.18759-0.1189 0.32274-0.022123 0.13377-0.030626 0.29174-0.025737 0.47356 0.00241 0.086635 0.00747 0.17139 0.014927 0.25428 0.00746 0.082892 0.019208 0.15987 0.036032 0.23112 0.018208 0.071009 0.043256 0.13229 0.075152 0.18376 0.03328 0.051229 0.075854 0.08893 0.12714 0.11273 0.05267 0.023554 0.11689 0.02833 0.19303 0.014927 0.06783-0.01194 0.12479-0.037066 0.17089-0.075152 0.046102-0.038086 0.083206-0.084193 0.11067-0.13898 0.028847-0.055029 0.048825-0.11349 0.060739-0.17553 0.013299-0.062283 0.020779-0.12367 0.021619-0.18376 0.0011728-0.074417-0.0065545-0.14497-0.022648-0.21207-0.014709-0.067343-0.038241-0.12552-0.071034-0.17398-0.031652-0.050089-0.071256-0.08717-0.11839-0.1117-0.047133-0.024528-0.10191-0.031555-0.1642-0.02059-0.051219 0.00902-0.096765 0.029409-0.13692 0.060739-0.039014 0.029703-0.069891 0.066277-0.092138 0.11015-0.0052-0.21602 0.00978-0.37191 0.044267-0.4679 0.035624-0.097611 0.083058-0.15166 0.14258-0.16214 0.035992-0.00634 0.065903-0.00183 0.090079 0.013898 0.024176 0.015725 0.043198 0.037764 0.056621 0.065372 0.014564 0.02598 0.025545 0.051911 0.032943 0.077725l0.18273-0.068975c-0.011053-0.046578-0.031473-0.093474-0.061253-0.14104-0.028396-0.047807-0.067757-0.085563-0.11839-0.11376-0.025316-0.014097-0.054438-0.023129-0.086476-0.026766zm0.84057 0.018016c0.04845-0.00853 0.08968 0.0065 0.12354 0.044782 0.035 0.036655 0.05515 0.095159 0.06074 0.17553 0.0069 0.071574-2e-3 0.13544-0.02625 0.19251-0.02307 0.055439-0.06131 0.088297-0.1153 0.0978-0.05399 0.0095-0.09741-0.00887-0.12971-0.054562-0.03255-0.047076-0.05231-0.10653-0.0592-0.1781-0.0056-0.080367 0.0036-0.14356 0.02677-0.19045 0.0229-0.048274 0.06266-0.077515 0.11942-0.087505zm-1.5988 0.12302-0.59607 0.10501-0.00309 0.90594 0.15288 0.00515c0.0076-0.054143 0.024481-0.099317 0.050959-0.13538 0.027862-0.036303 0.063123-0.058333 0.10604-0.065887 0.033223-0.00585 0.063704 0.00187 0.091623 0.022649 0.027919 0.020775 0.051464 0.059653 0.070004 0.11633 0.01854 0.056678 0.027892 0.13625 0.028825 0.23884 0.00199 0.11668-0.00989 0.20841-0.036546 0.2759-0.026895 0.066101-0.074234 0.10542-0.14206 0.11736-0.056756 0.0099907-0.1022-0.0075696-0.13589-0.053018-0.033933-0.046833-0.056116-0.10504-0.066916-0.1745l-0.18273 0.057651c0.017534 0.12393 0.059347 0.21999 0.1256 0.28825 0.066249 0.068261 0.15823 0.092261 0.2759 0.071549 0.13428-0.023637 0.23096-0.091635 0.2898-0.20332 0.058592-0.11307 0.083734-0.25734 0.075666-0.43289-0.0064392-0.17441-0.039645-0.30665-0.099859-0.39738-0.05883-0.090974-0.14354-0.12707-0.25428-0.10758-0.035992 0.00634-0.068913 0.019158-0.098315 0.038605-0.028018 0.019204-0.051914 0.042169-0.071549 0.06846l0.00566-0.48077 0.40664-0.071549zm-0.87402 0.13229-0.20744 0.036546 0.057651 1.6297c0.00314 0.090788 2.019e-4 0.162-0.00927 0.21362-0.00784 0.052759-0.026162 0.090511-0.055077 0.11273-0.030299 0.02246-0.075503 0.035292-0.13486 0.038605l-0.00412 0.20795c0.10764-0.00468 0.19179-0.025558 0.25222-0.063313 0.061816-0.037998 0.10498-0.097798 0.1292-0.17913 0.024461-0.079947 0.034277-0.18501 0.029855-0.31553zm-0.78549 0.1467c-0.037542 0.00108-0.077713 0.00544-0.11993 0.012868l-0.32583 0.057136 0.060739 1.7192 0.20744-0.036546-0.025222-0.74071 0.12457-0.021619c0.10496-0.019904 0.19557-0.055424 0.2723-0.10604 0.077863-0.05224 0.13744-0.11697 0.1781-0.19406 0.040419-0.078474 0.058131-0.16703 0.053533-0.26612-0.0070146-0.16146-0.057564-0.27741-0.15133-0.34796-0.07051-0.053952-0.16173-0.079415-0.27436-0.076181zm0.026252 0.20641c0.034948 0.00598 0.064657 0.018728 0.089564 0.038605 0.050954 0.038128 0.078596 0.10181 0.082873 0.19097 0.00411 0.096325-0.018577 0.17465-0.067945 0.23472-0.048227 0.058441-0.12958 0.098999-0.24399 0.12199l-0.096771 0.01956-0.02059-0.57857 0.13692-0.024193c0.044989-0.00792 0.084986-0.00907 0.11993-0.00309zm-1.8108 0.10655c-0.025898-1.688e-4 -0.052951 0.00221-0.081329 0.00721-0.11351 0.019981-0.20052 0.072772-0.26097 0.15905-0.059068 0.086039-0.084513 0.1933-0.076181 0.32171 0.00534 0.078983 0.027639 0.1465 0.067431 0.20229 0.039792 0.055792 0.089278 0.095971 0.14773 0.11993-0.067276 0.047522-0.11969 0.11354-0.15751 0.19869-0.03806 0.083768-0.054148 0.18133-0.047356 0.29289 0.010027 0.16236 0.055477 0.28147 0.13589 0.35723 0.08017 0.074373 0.18339 0.10041 0.30936 0.07824 0.1232-0.021691 0.21674-0.08199 0.28053-0.18171 0.064937-0.10134 0.092385-0.23347 0.082358-0.39583-0.005983-0.09885-0.033452-0.18159-0.082358-0.24862-0.047766-0.06866-0.10546-0.11644-0.17295-0.1431 0.059701-0.041907 0.10657-0.09866 0.14104-0.17038 0.034229-0.073103 0.047981-0.15361 0.041179-0.2409-0.0097158-0.12816-0.051932-0.22328-0.12714-0.28568-0.055368-0.046984-0.12203-0.070527-0.19972-0.071034zm5.081 0.00154c0.06091-0.010722 0.1106 0.011235 0.14876 0.065886 0.03955 0.054407 0.06221 0.13056 0.06795 0.22803 0.0075 0.1157-0.0051 0.20296-0.03758 0.26149-0.03251 0.058529-0.07708 0.092442-0.13383 0.10243-0.05814 0.010234-0.10739-0.0074-0.14824-0.053018-0.04085-0.045614-0.06506-0.12622-0.07258-0.24193-0.0062-0.10023 0.0056-0.1829 0.03552-0.2481 0.02991-0.065207 0.07633-0.10358 0.14001-0.11479zm-0.97388 0.096771c0.052603-0.00926 0.094614 0.00253 0.12611 0.035517 0.032637 0.031362 0.056403 0.076582 0.071034 0.13538 0.014387 0.057409 0.020162 0.12054 0.018016 0.18942-4.304e-4 0.054309-0.00586 0.10787-0.016472 0.16111-0.010852 0.051862-0.029357 0.096903-0.055592 0.13435-0.026234 0.037443-0.064437 0.060202-0.11427 0.068975-0.042913 0.00755-0.079659-0.00375-0.11067-0.033973-0.029869-0.031849-0.053634-0.07707-0.071034-0.13538-0.016015-0.05855-0.024655-0.12476-0.026252-0.19869-5.443e-4 -0.059846 0.00419-0.11448 0.013898-0.16472 0.010851-0.051862 0.029656-0.094879 0.056621-0.12817 0.026721-0.034675 0.062928-0.055786 0.10861-0.063828zm-5.0105 0.067431c-0.032038-0.00364-0.067276-0.00219-0.10604 0.00463-0.099669 0.017545-0.17915 0.066443-0.23781 0.1467-0.052886 0.073884-0.088476 0.17405-0.11118 0.29494a6.3251 6.3251 0 0 0 0.17398 0.29752c4.064e-4 -0.17042 0.012142-0.30585 0.041694-0.38811 0.035624-0.097611 0.083058-0.15166 0.14258-0.16214 0.035992-0.00634 0.066418-0.00183 0.090594 0.013898 0.024176 0.015725 0.042683 0.037764 0.056106 0.065372 0.014564 0.02598 0.025545 0.051911 0.032943 0.077725l0.18273-0.068975c-0.011053-0.046578-0.031473-0.093474-0.061254-0.14104-0.028396-0.047807-0.067757-0.085563-0.11839-0.11376-0.025316-0.014097-0.053923-0.023129-0.085961-0.026766zm0.84005 0.018016c0.04845-0.00853 0.089682 0.0065 0.12354 0.044782 0.034996 0.036655 0.055155 0.095159 0.060739 0.17553 0.00689 0.071574-0.00153 0.13596-0.025737 0.19303-0.023066 0.055439-0.061829 0.087782-0.11582 0.097285-0.053987 0.0095-0.096894-0.00887-0.1292-0.054562-0.032549-0.047076-0.052305-0.10601-0.059195-0.17758-0.00558-0.080367 0.00311-0.14408 0.026252-0.19097 0.022901-0.048274 0.062663-0.077515 0.11942-0.087506zm-0.80659 0.63159c-0.027357-0.00339-0.056359-0.00239-0.087505 0.00309-0.051219 0.00902-0.09728 0.029409-0.13744 0.060739-0.025842 0.019674-0.046371 0.043596-0.064857 0.06949a6.3251 6.3251 0 0 0 0.063828 0.10192c0.025438-0.027354 0.056861-0.046508 0.096771-0.053533 0.052603-0.00926 0.094614 0.00253 0.12611 0.035517 0.032637 0.031362 0.056403 0.076583 0.071034 0.13538 0.014387 0.057409 0.020677 0.12054 0.018531 0.18942-3.04e-4 0.038353-0.00646 0.075934-0.011839 0.11376a6.3251 6.3251 0 0 0 0.14979 0.1817c0.018366-0.042456 0.033818-0.085916 0.042723-0.13229 0.013299-0.062283 0.020264-0.12367 0.021104-0.18376 0.00117-0.07442-0.00604-0.14497-0.022134-0.21207-0.01471-0.067345-0.038757-0.12552-0.07155-0.17398-0.031652-0.050089-0.071256-0.08717-0.11839-0.1117-0.023567-0.012264-0.048825-0.020287-0.076181-0.023678zm0.8452 0.085446c0.060909-0.010722 0.1106 0.011235 0.14876 0.065886 0.039548 0.054407 0.062206 0.13005 0.067945 0.22751 0.00752 0.1157-0.00506 0.20296-0.037576 0.26149-0.032513 0.058529-0.077076 0.092957-0.13383 0.10295-0.05814 0.010235-0.1079-0.0079176-0.14876-0.053532-0.040855-0.045614-0.065055-0.12622-0.072578-0.24193-0.0062266-0.10023 0.0056068-0.1829 0.035517-0.2481s0.076846-0.10306 0.14052-0.11427zm9.5309 0.094712-0.12096 0.021104 0.0057 0.157a6.3251 6.3251 0 0 0 0.1153-0.1781zm-0.69901 0.13126c-0.03754 0.00108-0.07771 0.00544-0.11993 0.012868l-0.32583 0.057136 0.03861 1.0964a6.3251 6.3251 0 0 0 0.42929-0.41745c-0.03862 0.01807-0.08225 0.03318-0.13486 0.04375l-0.09729 0.01956-0.02059-0.57856 0.13692-0.024193c0.08998-0.015839 0.15968-0.00372 0.2095 0.036032 0.05096 0.038128 0.0786 0.10129 0.08287 0.19045 0.0019 0.045134-0.0031 0.085848-0.01287 0.12302a6.3251 6.3251 0 0 0 0.21928-0.27075c-0.02342-0.091795-0.06561-0.16345-0.13023-0.21207-0.07051-0.053952-0.16224-0.079415-0.27487-0.076181zm-1.7846 0.31296c-0.0259-1.688e-4 -0.05295 0.00221-0.08133 0.00721-0.11351 0.019981-0.20052 0.073286-0.26097 0.15957-0.05907 0.086039-0.08451 0.1933-0.07618 0.32171 0.0053 0.07898 0.02815 0.14598 0.06795 0.20178 0.03979 0.05579 0.08876 0.09597 0.14722 0.11993-0.06728 0.04752-0.11969 0.11354-0.15751 0.19869-0.03806 0.08377-0.05415 0.18185-0.04736 0.2934 0.01003 0.16236 0.05548 0.28096 0.13589 0.35671 0.08017 0.07437 0.18339 0.10093 0.30936 0.07876 0.1232-0.02169 0.21674-0.0825 0.28053-0.18222 0.06494-0.10134 0.09238-0.23347 0.08236-0.39583-6e-3 -0.09885-0.03345-0.18159-0.08236-0.24862-0.04777-0.06866-0.10546-0.11644-0.17295-0.1431 0.0597-0.04191 0.10656-0.09866 0.14104-0.17038 0.03423-0.0731 0.04798-0.15309 0.04118-0.24038-0.0097-0.12816-0.05193-0.22379-0.12714-0.28619-0.05537-0.046984-0.12203-0.070527-0.19972-0.071034zm-0.90336 0.16575c-0.03204-0.00364-0.06728-0.00219-0.10604 0.00463-0.09967 0.017545-0.17915 0.066442-0.23781 0.1467-0.05727 0.080014-0.09651 0.18759-0.11839 0.32274-0.02212 0.13377-0.03114 0.29174-0.02625 0.47356 0.0024 0.08664 0.0075 0.17139 0.01493 0.25428 0.0075 0.08289 0.01972 0.15986 0.03655 0.23112 0.01821 0.07101 0.04326 0.13229 0.07515 0.18376 0.03328 0.05123 0.07534 0.08893 0.12662 0.11273 0.05267 0.02355 0.1174 0.02833 0.19354 0.01493 0.06783-0.01194 0.12479-0.03655 0.17089-0.07464 0.0461-0.03809 0.08269-0.08471 0.11015-0.13949 0.02885-0.05503 0.04934-0.11349 0.06125-0.17553 0.0133-0.06228 0.02027-0.12367 0.02111-0.18376 0.0012-0.07442-6e-3 -0.14497-0.02213-0.21207-0.01471-0.06734-0.03876-0.12552-0.07155-0.17398-0.03165-0.05009-0.07074-0.08717-0.11788-0.1117-0.04713-0.02453-0.10191-0.03156-0.1642-0.02059-0.05122 9e-3 -0.09728 0.02941-0.13744 0.06074-0.03901 0.0297-0.06938 0.06628-0.09162 0.11015-0.0052-0.21602 0.0093-0.37191 0.04375-0.4679 0.03562-0.097611 0.08306-0.15166 0.14258-0.16214 0.03599-0.00634 0.06642-0.00131 0.09059 0.014413 0.02418 0.015725 0.04268 0.037249 0.05611 0.064857 0.01456 0.02598 0.02555 0.05191 0.03294 0.07773l0.18273-0.06846c-0.01105-0.046579-0.03147-0.09399-0.06125-0.14155-0.0284-0.047807-0.06776-0.085563-0.11839-0.11376-0.02532-0.014097-0.05392-0.023129-0.08596-0.026766zm0.84005 0.018016c0.04845-0.00853 0.08968 0.0065 0.12354 0.044782 0.035 0.036655 0.05516 0.095159 0.06074 0.17553 0.0069 0.071574-0.0015 0.13596-0.02574 0.19303-0.02307 0.05544-0.06183 0.08778-0.11582 0.09729-0.05399 0.0095-0.09689-0.0089-0.1292-0.05456-0.03255-0.04708-0.05231-0.10601-0.05919-0.17758-0.0056-0.080366 0.0031-0.14408 0.02625-0.19097 0.0229-0.048274 0.06266-0.077515 0.11942-0.087505zm-1.5988 0.12302-0.59607 0.10501-0.0031 0.90594 0.15288 0.0051c0.0076-0.05414 0.02448-0.09932 0.05096-0.13538 0.02786-0.0363 0.06364-0.05782 0.10655-0.06537 0.03322-0.0058 0.0637 0.0014 0.09162 0.02213 0.02792 0.02078 0.05095 0.05965 0.06949 0.11633 0.01854 0.05668 0.02841 0.13624 0.02934 0.23884 2e-3 0.11668-0.01041 0.20893-0.03706 0.27641-0.0269 0.0661-0.07424 0.10491-0.14207 0.11685-0.05676 0.01-0.1022-0.0076-0.13589-0.05302-0.03393-0.04683-0.05612-0.10504-0.06692-0.1745l-0.18222 0.05765c0.01753 0.12393 0.05935 0.21999 0.1256 0.28825 0.06625 0.06826 0.15824 0.09226 0.2759 0.07155 0.13428-0.02364 0.23045-0.09112 0.28928-0.20281 0.05859-0.11307 0.08425-0.25786 0.07618-0.43341-0.0064-0.17441-0.04016-0.30665-0.10037-0.39738-0.05883-0.09097-0.14354-0.12707-0.25428-0.10758-0.03599 0.0063-0.0684 0.01967-0.0978 0.03912-0.02802 0.0192-0.05191 0.04165-0.07155 0.06795l0.0051-0.48025 0.40716-0.07155zm-0.87351 0.13229-0.20795 0.03655 0.058165 1.6297c0.00314 0.09079-3.129e-4 0.162-0.00978 0.21362-0.00784 0.05276-0.026162 0.09051-0.055077 0.11273-0.022821 0.01692-0.056434 0.02637-0.095741 0.03243a6.3251 6.3251 0 0 0 0.011324 5.15e-4 6.3251 6.3251 0 0 0 0.31862-0.01184c0.00219-0.0063 0.00629-0.01044 0.00824-0.01699 0.024461-0.07995 0.034792-0.18501 0.030369-0.31553zm-0.786 0.1467c-0.037541 0.0011-0.077198 0.0054-0.11942 0.01287l-0.32583 0.05714 0.060224 1.7192 0.20795-0.03655-0.025737-0.74071 0.12457-0.02162c0.10496-0.0199 0.19609-0.05542 0.27281-0.10604 0.077863-0.05224 0.13692-0.11697 0.17758-0.19406 0.040419-0.07847 0.058646-0.16703 0.054048-0.26612-0.00701-0.16146-0.057564-0.27741-0.15133-0.34796-0.070509-0.05395-0.16225-0.07942-0.27487-0.07618zm0.026252 0.20641c0.034948 6e-3 0.065172 0.01924 0.090079 0.03912 0.050954 0.03813 0.078596 0.10181 0.082873 0.19097 0.00411 0.09633-0.018578 0.17414-0.067945 0.23421-0.048227 0.05844-0.12958 0.09951-0.24399 0.12251l-0.097285 0.01905-0.020589-0.57857 0.13692-0.02419c0.044989-0.0079 0.084986-0.0091 0.11993-0.0031zm-1.8108 0.10655c-0.025898-1.69e-4 -0.052951 0.0022-0.081329 0.0072-0.11351 0.01998-0.20052 0.07329-0.26097 0.15957-0.059068 0.08604-0.084513 0.1933-0.076181 0.32171 0.00534 0.07898 0.028154 0.14599 0.067945 0.20178 0.039792 0.05579 0.088764 0.09597 0.14722 0.11993-0.062396 0.04408-0.11067 0.10577-0.14773 0.18222a6.3251 6.3251 0 0 0 0.17141 0.07515c0.00505-0.01736 0.00786-0.0371 0.014927-0.0525 0.02991-0.06521 0.076331-0.10306 0.14001-0.11427 0.060909-0.01072 0.1106 0.01124 0.14876 0.06589 0.039548 0.05441 0.062206 0.13005 0.067945 0.22751 3.813e-4 0.0059-7.932e-4 0.0097-5.147e-4 0.01544a6.3251 6.3251 0 0 0 0.20795 0.07258c0.0026-0.03872 0.00317-0.07951 5.147e-4 -0.12251-0.00598-0.09885-0.033452-0.18159-0.082358-0.24862-0.047766-0.06866-0.10546-0.11644-0.17295-0.1431 0.059701-0.04191 0.10708-0.09866 0.14155-0.17038 0.034229-0.0731 0.047981-0.1531 0.041179-0.24038-0.00972-0.12816-0.052447-0.22379-0.12766-0.28619-0.055368-0.04699-0.12203-0.07053-0.19972-0.07103zm5.0815 0.0021c0.06091-0.01072 0.1106 0.01123 0.14876 0.06589 0.03955 0.05441 0.06221 0.13005 0.06794 0.22752 0.0075 0.1157-0.0051 0.20296-0.03758 0.26149-0.03251 0.05853-0.07708 0.09296-0.13383 0.10295-0.05814 0.01023-0.1079-0.0074-0.14876-0.05302-0.04086-0.04561-0.06506-0.12674-0.07258-0.24244-0.0062-0.10023 0.0056-0.1829 0.03552-0.2481 0.02991-0.06521 0.07685-0.10306 0.14052-0.11427zm-0.9744 0.09626c0.0526-0.0093 0.09461 0.0025 0.12611 0.03552 0.03264 0.03136 0.0564 0.07658 0.07103 0.13538 0.01439 0.05741 0.02068 0.12054 0.01853 0.18942-4.3e-4 0.05431-0.0059 0.10838-0.01647 0.16163-0.01085 0.05186-0.02936 0.09639-0.05559 0.13383-0.02623 0.03744-0.06444 0.06072-0.11427 0.06949-0.04291 0.0076-0.08017-0.0043-0.11118-0.03449-0.02987-0.03185-0.05312-0.07656-0.07052-0.13486-0.01602-0.05855-0.02517-0.12476-0.02677-0.19869-5.44e-4 -0.05985 0.0042-0.115 0.0139-0.16523 0.01085-0.05186 0.02966-0.09436 0.05662-0.12766 0.02672-0.03468 0.06293-0.0563 0.10861-0.06434zm-5.0105 0.06743c-0.032038-0.0036-0.067276-0.0017-0.10604 0.0051-0.099669 0.01755-0.17864 0.06644-0.23729 0.1467-0.026845 0.0375-0.048876 0.08216-0.067945 0.13177a6.3251 6.3251 0 0 0 0.16575 0.10707c0.00285-0.0099 0.0035-0.02612 0.00669-0.035 0.035624-0.09761 0.083058-0.15166 0.14258-0.16214 0.035992-0.0063 0.065903-0.0013 0.090079 0.01441 0.024176 0.01572 0.043198 0.03725 0.056621 0.06486 0.014564 0.02598 0.025545 0.05191 0.032943 0.07772l0.18273-0.06846c-0.011054-0.04658-0.031473-0.09399-0.061254-0.14155-0.028396-0.04781-0.067757-0.08556-0.11839-0.11376-0.025316-0.0141-0.054438-0.02313-0.086476-0.02677zm0.84057 0.01802c0.04845-0.0085 0.089682 0.0065 0.12354 0.04478 0.034996 0.03665 0.055155 0.09516 0.060739 0.17552 0.00689 0.07157-0.00204 0.13596-0.026252 0.19303-0.023066 0.05544-0.061314 0.08778-0.1153 0.09728-0.053987 0.0095-0.097409-0.0084-0.12971-0.05405-0.032549-0.04708-0.052305-0.10653-0.059195-0.1781-0.00558-0.08037 0.00362-0.14408 0.026766-0.19097 0.022901-0.04827 0.062663-0.07752 0.11942-0.08751z" fill="#014b86" stroke-width=".28825"/>
 <g transform="rotate(-44.702 8.2169 9.129)">
  <path d="m10.55 3.7474c-0.01249-0.00132-0.02462-0.00269-0.03693-0.00456-0.01316-2e-3 -0.02693-0.00411-0.03986-0.00674-0.01294-0.00264-0.02535-0.00532-0.03805-0.00857s-0.02526-0.00728-0.0377-0.011131c-0.01244-0.00385-0.02517-0.00779-0.03734-0.01223s-0.02437-0.00905-0.03625-0.014062c-0.01188-0.00501-0.02359-0.010335-0.03516-0.015895s-0.02246-0.011264-0.03371-0.017364c-0.01125-0.00609-0.02244-0.012573-0.03335-0.019193s-0.02135-0.013542-0.0319-0.020662-0.02136-0.014891-0.03154-0.022491-0.02029-0.01515-0.03008-0.02323c-0.0098-0.00808-0.01887-0.016536-0.02827-0.025066s-0.01892-0.017194-0.02791-0.026164c-9e-3 -0.00897-0.01759-0.017881-0.02609-0.02727-0.0085-0.00939-0.0169-0.019313-0.025-0.029103s-0.01594-0.01966-0.023541-0.029841c-0.0076-0.010182-0.01462-0.020393-0.02172-0.030947-0.00712-0.010553-0.014031-0.02114-0.02063-0.032049-0.00662-0.01091-0.013076-0.022269-0.019176-0.033518-0.0061-0.011248-0.012118-0.022684-0.017718-0.034256s-0.01053-0.023121-0.01553-0.034999c-0.00497-0.011879-0.010039-0.023932-0.014439-0.036101-0.00106-0.00293-0.00236-0.00619-0.00334-0.00912l-0.52875 1.95e-4c0.10852 0.30884 0.40171 0.52924 0.74856 0.52924l0.44982-5.15e-4z" fill="#4d4d4d" stroke-width=".26458"/>
  <path d="m8.2523 0.35625a1.9841 1.9841 0 0 0-0.52931 0.31372l2.16e-5 1.7587c0 0.041226 0.0034 0.081771 0.0094 0.12127 6e-3 0.039497 0.014617 0.078006 0.026179 0.11533 0.00385 0.012442 0.00781 0.024674 0.01225 0.036843 0.00888 0.024338 0.019217 0.048319 0.030336 0.071463 0.016679 0.034715 0.035802 0.0678 0.057157 0.09946 0.014236 0.021107 0.02948 0.041566 0.04563 0.061152 0.016151 0.019586 0.033152 0.038439 0.051086 0.056373 0.017933 0.017934 0.036589 0.03508 0.056175 0.051231 0.019586 0.01615 0.040153 0.031122 0.06126 0.045358 0.12664 0.085418 0.27941 0.13508 0.44431 0.13508l0.52912 1.684e-4c-0.43974 0-0.79379-0.35383-0.79379-0.79356z" fill="#ccc" stroke-width=".26458"/>
  <path d="m10.215 3.7517a1.9841 1.9841 0 0 1-0.13798 0.10025 1.9841 1.9841 0 0 1-0.14624 0.08785 1.9841 1.9841 0 0 1-0.15348 0.074931 1.9841 1.9841 0 0 1-0.15916 0.061495v7.7768c0 0.0092-6.502e-4 0.01796-0.00155 0.02687-9e-4 0.0089-0.00186 0.01773-0.00362 0.02636-0.00176 0.0086-0.00415 0.01754-0.00672 0.02584s-0.00545 0.01637-0.00878 0.02429c-0.00334 0.0079-0.00731 0.01524-0.011369 0.02274-0.00406 0.0075-0.00817 0.01519-0.012919 0.02222-0.00475 7e-3 -0.010119 0.01363-0.015503 0.02015-0.00538 0.0065-0.011075 0.01263-0.017053 0.0186-0.00598 6e-3 -0.012075 0.01167-0.018603 0.01705-0.00653 0.0054-0.013118 0.01076-0.020154 0.0155-0.00704 0.0047-0.014722 0.0089-0.022221 0.01292-0.0075 0.0041-0.014819 8e-3 -0.022738 0.01137-0.00792 0.0033-0.015993 0.0062-0.024288 0.0088-0.0083 0.0026-0.017211 5e-3 -0.025838 0.0067-0.00863 0.0018-0.017439 0.0027-0.026355 0.0036-0.00892 9e-4 -0.017711 0.0016-0.026872 0.0016h0.52917c0.14658 0 0.26458-0.11598 0.26458-0.25993v-7.6383a1.9841 1.9486 0 0 0 0.78757-0.48729m0.52917 0a1.9841 1.9486 0 0 0 0.56222-1.3576 1.9841 1.9486 0 0 0-1.5198-1.8929 1.9841 1.9841 0 0 1 0.15916 0.10129 1.9841 1.9841 0 0 1 0.16381 0.13022 1.9841 1.9841 0 0 1 0.14934 0.14728 1.9841 1.9841 0 0 1 0.13281 0.16175 1.9841 1.9841 0 0 1 0.11472 0.17518 1.9841 1.9841 0 0 1 0.09612 0.18655 1.9841 1.9841 0 0 1 0.07597 0.19534 1.9841 1.9841 0 0 1 0.05426 0.20205 1.9841 1.9841 0 0 1 0.03359 0.20671 1.9841 1.9841 0 0 1 0.01085 0.20929 1.9841 1.9841 0 0 1-0.01085 0.1974 1.9841 1.9841 0 0 1-0.03049 0.19534 1.9841 1.9841 0 0 1-0.04961 0.19172 1.9841 1.9841 0 0 1-0.06873 0.18552 1.9841 1.9841 0 0 1-0.05995 0.12971 1.9841 1.9841 0 0 1-0.06873 0.12557 1.9841 1.9841 0 0 1-0.09819 0.14728 1.9841 1.9841 0 0 1-0.11059 0.13798 1.9841 1.9841 0 0 1-0.12247 0.12764 1.9841 1.9841 0 0 1-0.13332 0.11627" fill="#808080" stroke-width=".2622"/>
  <path d="m10.979 0.86057a1.9841 1.9841 0 0 0-0.48986-0.39027l-3.4e-5 1.9586c0 0.013742-2.35e-4 0.026999-8.85e-4 0.040565-0.0021 0.040698-0.0072 0.080745-0.01509 0.11957-0.0026 0.012941-0.0053 0.026078-0.0086 0.038778-0.0093 0.036277-0.02119 0.07137-0.03526 0.10542-0.0056 0.013632-0.0117 0.027057-0.01806 0.04029-0.01668 0.034715-0.03592 0.06804-0.05722 0.09969-0.0071 0.010554-0.01416 0.020627-0.02176 0.030808-0.01521 0.020363-0.03196 0.040311-0.04902 0.059087-0.0085 0.00939-0.01721 0.01821-0.02617 0.027177-0.09729 0.09729-0.21967 0.16948-0.35703 0.20576 0.0019 5.019e-4 0.00395 9.411e-4 0.00585 0.00143 0.0127 0.00325 0.025111 0.00666 0.038051 0.0093-0.01294-0.00263-0.025715-0.00568-0.038415-0.00894-0.0019-4.881e-4 -0.00359-0.0013-0.00549-0.0018-0.00716 0.00189-0.014654 0.00354-0.021898 0.00523 0.0032 0.010092 0.00606 0.020005 0.00966 0.029914 0.0044 0.012169 0.00947 0.024222 0.014439 0.036101 5e-3 0.011878 0.00957 0.023794 0.015166 0.035366 0.0056 0.011572 0.011618 0.023008 0.017718 0.034257s0.012556 0.022608 0.019176 0.033518c0.0066 0.010909 0.01351 0.021496 0.02063 0.032049 0.0071 0.010554 0.014851 0.020761 0.022451 0.030943 0.0076 0.010181 0.014741 0.020052 0.022811 0.029845 0.0081 0.00979 0.0172 0.019711 0.02573 0.029099 0.0085 0.00939 0.01675 0.018671 0.02572 0.027637 9e-3 0.00897 0.01852 0.017635 0.02791 0.026164 0.0094 0.00853 0.01884 0.016623 0.02863 0.024699 0.0098 0.00808 0.01954 0.015262 0.02972 0.022866 0.01018 0.0076 0.02099 0.015373 0.03154 0.022491 0.01055 0.00712 0.02099 0.014047 0.0319 0.020662 0.01091 0.00662 0.0221 0.013098 0.03335 0.019193 0.01125 0.0061 0.0225 0.012168 0.03407 0.017728s0.02328 0.010887 0.03516 0.015895c0.01188 0.00501 0.02408 0.00962 0.03625 0.014062 0.01217 0.00444 0.02453 0.00874 0.03697 0.012597 0.01244 0.00385 0.02499 0.00715 0.03769 0.010401 0.0127 0.00325 0.02547 0.0063 0.03841 0.00894 0.01294 0.00263 0.02597 0.00474 0.03913 0.00674 0.01317 2e-3 0.02649 0.00392 0.03986 0.00527s0.02664 0.00203 0.04021 0.00271c0.01357 6.832e-4 0.02719 0.00125 0.04093 0.00125l0.11109 1.524e-4a1.9841 1.9841 0 0 0 0.46424-0.52934l3.67e-4 3.635e-4a1.9841 1.9841 0 0 0 0.12881-0.25572 1.9841 1.9841 0 0 0 0.1597-0.76966 1.9841 1.9841 0 0 0-0.51854-1.3369zm-3.2561-0.19352a1.9841 1.9841 0 0 0-0.72286 1.5305 1.9841 1.9841 0 0 0 1.5002 1.9216l-2.934e-4 7.734c0 0.14658 0.11826 0.26428 0.26484 0.26428l0.58905 5.87e-4c0.14658 0 0.26464-0.11863 0.26464-0.26521l7.27e-5 -7.7763a1.9841 1.9841 0 0 0 0.59686-0.32467l-0.11109-1.525e-4c-0.01374 0-0.02737 1.62e-4 -0.04093-5.177e-4 -0.01357-6.833e-4 -0.02683-0.00209-0.04021-0.00344-0.01337-0.00135-0.026692-0.00327-0.039858-0.00527s-0.026193-0.0041-0.039134-0.00674c-0.012941-0.00263-0.025715-0.00568-0.038415-0.00894-0.0127-0.00325-0.025249-0.00655-0.037692-0.010401-0.012442-0.00385-0.024803-0.00815-0.036972-0.012597-0.012169-0.00444-0.02437-0.00906-0.036249-0.014062-0.011878-0.00501-0.02359-0.010335-0.035162-0.015895s-0.022828-0.011632-0.034076-0.017728c-0.011249-0.0061-0.022076-0.012215-0.032985-0.01883-0.010909-0.00662-0.021713-0.013907-0.032266-0.021026-0.010554-0.00712-0.021357-0.014156-0.031539-0.021761-0.010181-0.0076-0.020292-0.015155-0.030085-0.02323-0.00979-0.00808-0.018879-0.016536-0.028267-0.025066-0.00939-0.00853-0.018941-0.017197-0.027908-0.026164-0.00897-0.00897-0.017194-0.018249-0.025723-0.027637-0.00853-0.00939-0.017287-0.018943-0.025363-0.028736-0.00808-0.00979-0.015574-0.020027-0.023178-0.030209-0.0076-0.010181-0.015333-0.020389-0.022451-0.030943-0.00712-0.010554-0.014015-0.02114-0.02063-0.032049-0.00662-0.010909-0.013081-0.022269-0.019176-0.033518-0.0061-0.011249-0.012158-0.022685-0.017718-0.034256-0.00556-0.011572-0.010523-0.023121-0.01553-0.034999-0.00501-0.011878-0.010001-0.023932-0.014439-0.036101-0.00361-0.00991-0.00643-0.019823-0.00966-0.029914-0.058569 0.013683-0.11938 0.021046-0.18223 0.021046l-0.6497-2.724e-4c-0.1649 0-0.31767-0.049664-0.44431-0.13508-0.021107-0.014236-0.041674-0.029208-0.06126-0.045358-0.019586-0.016151-0.038242-0.033296-0.056175-0.05123-0.017934-0.017934-0.034935-0.036787-0.051086-0.056373-0.01615-0.019586-0.031394-0.040045-0.04563-0.061152-0.021355-0.031661-0.040478-0.064745-0.057157-0.09946-0.011119-0.023143-0.021459-0.047125-0.030336-0.071463-0.00444-0.012169-0.0084-0.024401-0.01225-0.036843-0.011562-0.037327-0.020177-0.075837-0.026179-0.11533-6e-3 -0.039497-0.0094-0.080042-0.0094-0.12127z" fill="#f9f9f9" stroke-width=".26458"/>
  <rect x="8.6562" y="7.7401" width=".71906" height="3.9682" rx=".13229" ry=".53274" fill="#999" stroke-width=".13274"/>
  <rect x="8.7893" y="7.7401" width=".5859" height="3.9682" rx=".10779" ry=".53274" fill="#ccc" stroke-width=".11982"/>
 </g>
 <g transform="rotate(44.049 4.5844 10.503)">
  <path d="m3.622 1.3189c-0.13094 0.37637-0.26188 0.75274-0.39282 1.1291h-0.78564c-0.13094-0.37637-0.26188-0.75274-0.39282-1.1291 0.13094-0.37637 0.26188-0.75274 0.39282-1.1291h0.78564c0.13094 0.37637 0.26188 0.75274 0.39282 1.1291zm-1.1984-0.30684h0.82559v6.0721h-0.82559v-6.0721z" fill="#ccc" stroke-width=".092246"/>
  <path d="m3.4089 1.3189c-0.11319 0.37637-0.22637 0.75274-0.33956 1.1291h-0.67912c-0.11319-0.37637-0.22637-0.75274-0.33956-1.1291 0.11319-0.37637 0.22637-0.75274 0.33956-1.1291h0.67912c0.11319 0.37637 0.22637 0.75274 0.33956 1.1291zm-1.0359-0.30684h0.71365v6.0721h-0.71365v-6.0721z" fill="#fff" stroke-width=".085764"/>
  <g stroke-width=".30526">
   <path d="m4.1614 8.2693c-0.084601 0.00431-0.17288-0.00853-0.25528 0.00621-0.090323 0.096171-0.08889 0.24385-0.10645 0.36793-0.011896 0.39352-0.00287 0.78756-0.00569 1.1813 0.00162 0.66249-0.0033 1.3251 0.00259 1.9875 0.014166 0.10275 0.00724 0.28853 0.076671 0.33482 0.22967-0.16004 0.30297-0.45775 0.28816-0.72394 5e-7 -1.0513 1.1e-6 -2.1025 1.7e-6 -3.1538z" fill="#803300"/>
   <path d="m1.6148 12.049c0.050561-0.27539 0.025328-0.5566 0.03151-0.83498-0.00123-0.83123 0.00249-1.6625-0.0019-2.4937-0.012712-0.14848-0.010308-0.31712-0.10403-0.44057-0.028992-0.011541-0.1192-0.033544-0.10542 0.019784 5.376e-4 1.0864-0.00108 2.1728 8.084e-4 3.2592 0.0074 0.17616 0.063772 0.35454 0.17903 0.49029z" fill="#ffb380"/>
   <path d="m1.9141 6.9774c-0.29316 0-0.52917 0.31413-0.52917 0.70435v0.58756h0.079065c0.00229 0 0.00446 5.82e-5 0.00672 5.168e-4 0.00226 4.585e-4 0.00449 0.00116 0.00672 0.00207 0.00223 9.062e-4 0.00452 0.00227 0.00672 0.00362 0.00219 0.00134 0.00404 0.00288 0.0062 0.00465s0.0046 0.0035 0.00672 0.00568 0.00413 0.00465 0.0062 0.00723c0.00415 0.00517 0.00793 0.011365 0.011886 0.018087 0.00396 0.00672 0.00814 0.014039 0.011886 0.022221 0.00375 0.00818 0.00733 0.017317 0.010852 0.026872 0.00352 0.00955 0.00707 0.019649 0.010335 0.030489 0.00326 0.01084 0.00631 0.02207 0.0093 0.034107s0.00558 0.024578 0.00827 0.037724 0.00538 0.027175 0.00775 0.041341c0.00237 0.014167 0.00469 0.028825 0.00672 0.043925s0.00402 0.030564 0.00568 0.046509c0.00167 0.015945 0.00285 0.03239 0.00413 0.049093 0.00128 0.016702 0.00222 0.033788 0.0031 0.05116 8.782e-4 0.017371 0.00162 0.034757 0.00207 0.05271s0.00103 0.036331 0.00103 0.054777v2.9027c0 0.01845-5.835e-4 0.03682-0.00103 0.05478-4.501e-4 0.01795-0.00119 0.03534-0.00207 0.05271-8.782e-4 0.01737-0.00182 0.03446-0.0031 0.05116s-0.00246 0.03315-0.00413 0.04909-0.00365 0.03141-0.00568 0.04651-0.00435 0.02976-0.00672 0.04392c-0.00237 0.01417-0.00506 0.02768-0.00775 0.04082-3.973e-4 0.0019-6.296e-4 0.0038-0.00103 0.0057 0.093093 0.10884 0.21512 0.17467 0.34933 0.17467h1.818c0.080415 0 0.15615-0.02379 0.22428-0.06615-0.00153-0.0038-0.00316-0.0073-0.00465-0.01137-0.00352-0.0096-0.00655-0.01965-0.00982-0.03049-0.00326-0.01084-0.00631-0.02207-0.0093-0.03411s-0.00609-0.0251-0.00879-0.03824c-0.00269-0.01314-0.00538-0.02666-0.00775-0.04082-0.00237-0.01417-0.00417-0.02882-0.0062-0.04392s-0.00402-0.03056-0.00568-0.04651c-0.00167-0.01595-0.00337-0.03239-0.00465-0.04909s-0.00222-0.03379-0.0031-0.05116c-8.782e-4 -0.01737-0.00162-0.03476-0.00207-0.05271s-5.167e-4 -0.03633-5.167e-4 -0.05478v-2.9027c0-0.018446 6.67e-5 -0.036824 5.167e-4 -0.054777 4.501e-4 -0.017953 0.00119-0.035339 0.00207-0.05271 8.782e-4 -0.017371 0.00182-0.034458 0.0031-0.05116s0.00298-0.033148 0.00465-0.049093 0.00365-0.031409 0.00568-0.046509 0.00383-0.029758 0.0062-0.043925 0.00506-0.028196 0.00775-0.041341c0.00269-0.013146 0.0058-0.025687 0.00879-0.037724s0.00604-0.023267 0.0093-0.034107 0.0063-0.020934 0.00982-0.030489c0.00352-0.00956 0.0071-0.018689 0.010852-0.026872 0.00375-0.00818 0.00793-0.015499 0.011886-0.022221 0.00396-0.00672 0.00774-0.012914 0.011886-0.018087 0.00207-0.00259 0.0046-0.00505 0.00672-0.00723s0.00404-0.00392 0.0062-0.00568c0.00216-0.00177 0.00452-0.00331 0.00672-0.00465 0.00219-0.00134 0.00397-0.00271 0.0062-0.00362 0.00223-9.061e-4 0.00446-0.00161 0.00672-0.00207 0.00226-4.586e-4 0.00494-5.168e-4 0.00723-5.168e-4h0.23513v-0.58756c0-0.39022-0.23601-0.70435-0.52917-0.70435z" fill="#ff7f2a"/>
  </g>
  <rect x="2.8353" y="8.2692" width=".71906" height="3.9682" rx=".13229" ry=".53274" fill="#a40" stroke-width=".13274"/>
  <rect x="1.777" y="8.2692" width=".71906" height="3.9682" rx=".13229" ry=".53274" fill="#d45500" stroke-width=".13274"/>
 </g>
 <metadata>
  <rdf:RDF>
   <cc:Work rdf:about="">
    <cc:license rdf:resource="http://creativecommons.org/licenses/by-sa/4.0/"/>
    <dc:creator>
     <cc:Agent>
      <dc:title>PJ568</dc:title>
     </cc:Agent>
    </dc:creator>
    <dc:publisher>
     <cc:Agent>
      <dc:title>PJ568</dc:title>
     </cc:Agent>
    </dc:publisher>
    <dc:rights>
     <cc:Agent>
      <dc:title>PJ568</dc:title>
     </cc:Agent>
    </dc:rights>
    <dc:language>None</dc:language>
    <dc:title>568Tools</dc:title>
   </cc:Work>
   <cc:License rdf:about="http://creativecommons.org/licenses/by-sa/4.0/">
    <cc:permits rdf:resource="http://creativecommons.org/ns#Reproduction"/>
    <cc:permits rdf:resource="http://creativecommons.org/ns#Distribution"/>
    <cc:requires rdf:resource="http://creativecommons.org/ns#Notice"/>
    <cc:requires rdf:resource="http://creativecommons.org/ns#Attribution"/>
    <cc:permits rdf:resource="http://creativecommons.org/ns#DerivativeWorks"/>
    <cc:requires rdf:resource="http://creativecommons.org/ns#ShareAlike"/>
   </cc:License>
  </rdf:RDF>
 </metadata>
</svg>
