<?xml version="1.0" encoding="UTF-8" standalone="no"?>
<!-- Created with Inkscape (http://www.inkscape.org/) -->

<svg
   width="48"
   height="48"
   viewBox="0 0 12.7 12.7"
   version="1.1"
   id="svg5"
   xmlns="http://www.w3.org/2000/svg"
   xmlns:svg="http://www.w3.org/2000/svg"
   xmlns:rdf="http://www.w3.org/1999/02/22-rdf-syntax-ns#"
   xmlns:cc="http://creativecommons.org/ns#"
   xmlns:dc="http://purl.org/dc/elements/1.1/">
  <title
     id="title3522">568Tools</title>
  <defs
     id="defs2" />
  <g
     id="layer1"
     transform="matrix(1.0039369,0,0,1.0039369,-3.3153684,0.6149474)">
    <circle
       style="fill:#0277bd;fill-opacity:1;stroke-width:0.288251"
       id="path3408"
       cx="9.6274662"
       cy="5.7125626"
       r="6.3250985" />
  </g>
  <g
     id="layer4">
    <path
       id="circle1841"
       style="fill:#014b86;fill-opacity:1;stroke-width:0.289386"
       d="M 6.5463704,0.00465088 C 6.1598529,0.46240186 6.2553782,2.0182321 7.0683024,1.488798 7.385428,1.0807462 7.0276883,0.34688767 6.5598063,0.61856689 6.4813933,0.21571015 6.8519108,0.02501992 7.0982747,0.1912028 7.1123793,0.14425529 7.0894148,0.09090797 7.0502157,0.04030762 A 6.3499998,6.3499998 0 0 0 6.5463704,0.00465088 Z M 6.0885173,0.04082438 C 5.6888712,0.02138663 5.3745325,0.19133846 5.4885539,0.61753337 5.4190906,1.0339198 5.5367112,1.1353339 5.9014486,0.88883464 6.2094555,1.1425046 5.8268083,1.9502548 5.5722697,1.4154175 5.1835537,1.9888525 6.5258456,1.8780072 6.2171916,1.2004435 6.2788841,0.81835199 5.8010707,0.62889245 5.6714884,0.6692098 5.4565998,0.09024445 6.1240288,0.45048561 6.0885173,0.04082438 Z m 1.256254,0.03875733 C 7.4899119,0.46077342 7.464674,0.76876994 7.3292684,1.1322306 7.648334,1.9545433 8.6219916,0.99438197 7.9628215,0.48885905 8.1469746,0.10595442 7.901461,0.18046907 7.7008219,0.43408203 7.534317,0.40852943 7.5670927,0.2217177 7.5442424,0.11420492 A 6.3499998,6.3499998 0 0 0 7.3447713,0.07958171 Z M 5.2115682,0.17363281 C 4.7541827,0.38553113 5.1595532,1.2196818 5.0565389,1.677417 5.2145293,1.9965243 4.5426286,2.5236637 5.1738444,2.3166545 5.3978041,1.6652836 5.1711674,0.86794419 5.2115682,0.17363281 Z M 4.4942993,0.31677653 c -0.023208,-0.001228 -0.047009,1.9358e-4 -0.07183,0.004134 -0.00823,-0.001811 -0.014803,-0.002116 -0.022738,-0.003617 A 6.3499998,6.3499998 0 0 0 4.0312785,0.4547526 C 3.9335802,0.65855349 4.0075566,1.0235685 4.005957,1.2547038 L 4.035929,2.1171834 C 4.4550704,1.9623745 3.983421,1.1230774 4.7351115,1.1125936 5.0012921,0.90467624 4.8424133,0.3352028 4.4942993,0.31677653 Z M 4.383195,0.51469727 c 0.020832,0.002072 0.042803,0.006666 0.065629,0.0134359 C 5.0501669,0.73825401 3.9941469,1.5205804 4.194576,0.76842855 4.1464238,0.59818856 4.2373733,0.5001947 4.383195,0.51469727 Z M 7.7323446,0.63717041 C 8.3829342,0.78612007 7.4750817,1.765343 7.5566447,0.89296875 7.5620308,0.7880273 7.613909,0.65428115 7.7323446,0.63717041 Z m 1.409733,0.0113688 C 9.076121,0.86790343 9.2194937,1.489748 9.3797892,1.0082072 9.379435,0.93455081 9.3655384,0.8200506 9.3213949,0.73845622 A 6.3499998,6.3499998 0 0 0 9.1420776,0.64853921 Z M 6.7541097,0.73380534 C 7.3863859,0.85854593 6.566708,1.9747634 6.5747925,1.0660848 6.5701468,0.94120913 6.6062773,0.7604534 6.7541097,0.73380534 Z M 10.136849,1.2531535 c -0.6114418,0.3131009 0.312964,0.3234501 0.118856,0.092501 a 6.3499998,6.3499998 0 0 0 -0.115239,-0.089917 c -0.0015,-8.733e-4 -0.0021,-0.00171 -0.0036,-0.00258 z m -7.6176229,0.05271 A 6.3499998,6.3499998 0 0 0 2.4138062,1.3849284 L 1.9631877,1.7792196 A 6.3499998,6.3499998 0 0 0 1.8288289,1.9135783 C 1.6742749,2.9179724 3.2542825,2.1337671 2.4773682,1.55236 2.3129949,1.4713708 2.4760948,1.4009143 2.5192261,1.3058635 Z M 2.210201,1.6092041 C 2.8608554,1.758161 1.9529651,2.7373715 2.0345011,1.8650024 2.039887,1.7600611 2.0917714,1.6263245 2.210201,1.6092041 Z m 8.363314,0.3214274 C 9.8303361,2.0735931 9.8723914,3.6534652 10.587467,3.6685099 11.160495,3.4285422 10.885788,2.2904196 10.293429,2.6814901 10.187669,2.343125 10.526986,1.9785829 10.77867,2.2505086 10.937926,2.1422075 10.674601,1.945565 10.573515,1.9306315 Z M 9.8118042,2.0722249 C 9.4121587,2.0527878 9.0978241,2.2227381 9.2118408,2.6489339 9.1424427,3.0658661 9.2598977,3.1657025 9.6247355,2.9202352 9.9325285,3.1738477 9.5504435,3.9812394 9.2955566,3.446818 8.9065935,4.0199149 10.249797,3.9092298 9.9404785,3.2313273 10.002237,2.8491602 9.5239866,2.6595759 9.3947754,2.7006104 9.1797994,2.1216691 9.8463732,2.4810723 9.8118042,2.0722249 Z m -8.1659098,0.024288 a 6.3499998,6.3499998 0 0 0 -0.036174,0.036173 L 1.4030151,2.3890015 A 6.3499998,6.3499998 0 0 0 1.2252482,2.6267131 C 1.4993187,2.635375 1.6444104,2.3356203 1.6458944,2.0965129 Z m 9.4242306,0.0062 c 0.163692,0.3966223 0.08551,0.7040608 -0.02739,1.0836548 0.105494,0.4757052 0.776942,0.2959632 0.800985,-0.01757 A 6.3499998,6.3499998 0 0 0 11.656653,2.8644246 c 0.233085,0.7156331 -0.80406,0.2382051 -0.259933,-0.1767334 0.05949,0.00455 0.104098,0.00996 0.149345,0.014986 A 6.3499998,6.3499998 0 0 0 11.070125,2.102714 Z M 8.9343384,2.2050334 C 8.4778571,2.416761 8.8823445,3.2512719 8.7793091,3.7088175 8.9375571,4.0280554 8.2657689,4.5546815 8.8971313,4.3475382 9.1207774,3.6961769 8.8941729,2.89928 8.9343384,2.2050334 Z M 8.0496379,2.3404256 C 7.6071289,2.3141283 7.7037029,2.7795932 7.722526,3.1088542 L 7.759216,4.148584 C 8.1785807,3.993922 7.7062807,3.154653 8.4578817,3.1439941 8.7409847,2.9225822 8.5433743,2.2888859 8.145756,2.3523112 8.1112835,2.3459989 8.0791385,2.3421788 8.0496379,2.3404256 Z m 0.056844,0.2056722 c 0.020844,0.00209 0.042781,0.00664 0.065629,0.013436 0.601292,0.2095306 -0.4549377,0.992362 -0.254248,0.2402954 -0.048194,-0.1703548 0.04271,-0.268369 0.188619,-0.2537314 z M 6.3541341,2.6665039 C 5.6285309,2.7153952 6.2357145,3.5524218 5.9081665,3.913973 5.9583506,4.7582166 7.162585,4.2730298 6.6672933,3.6080485 6.3781584,3.3248635 7.0199171,2.7563816 6.3541341,2.6665039 Z m 4.1232629,0.098702 c 0.632072,0.1241535 -0.187844,1.2401789 -0.179318,0.3317627 -0.0046,-0.1246592 0.03125,-0.3057544 0.179318,-0.3317627 z M 5.4472127,2.832902 C 4.7048456,2.9767769 4.7459999,4.5561564 5.4611654,4.5712972 6.0341119,4.3311351 5.7602994,3.1927218 5.1676432,3.5837606 5.0617865,3.2447194 5.401624,2.8811471 5.6528849,3.1527791 5.8123071,3.0440349 5.5479923,2.8482936 5.4472127,2.832902 Z M 6.2910889,2.850989 C 6.8196084,2.9569987 6.0847096,3.7282619 6.143811,3.0437419 6.1492244,2.9608081 6.1941159,2.8584218 6.2910889,2.850989 Z M 4.6855021,2.9744954 C 4.2858789,2.9550031 3.9719173,3.1252539 4.0855387,3.5512044 4.0158663,3.9680916 4.1335461,4.0681401 4.4984334,3.8225057 4.8059966,4.0761924 4.4240461,4.8836602 4.1692546,4.3490885 3.7811402,4.9227647 5.1238859,4.8111243 4.8146932,4.1335978 4.8763048,3.7513707 4.3978244,3.5619288 4.2684733,3.6028809 4.0536919,3.0245118 4.7203432,3.3832903 4.6855021,2.9744954 Z M 3.8085531,3.1073039 C 3.3520152,3.3190875 3.7566149,4.1534858 3.6535238,4.6110881 3.8113347,4.9304701 3.1396133,5.4569697 3.771346,5.2498088 3.9947086,4.5985086 3.7681676,3.8015432 3.8085531,3.1073039 Z M 2.9238525,3.2426961 C 2.481273,3.2162915 2.5779419,3.6818548 2.5967407,4.0111247 l 0.03669,1.0397298 C 3.0518614,4.8954767 2.5810893,4.0572074 3.3320964,4.0462646 3.6158143,3.8247058 3.4167851,3.1918726 3.0199707,3.2545817 2.9854918,3.2482601 2.9533578,3.2444564 2.9238525,3.2426961 Z m -0.00207,0.206189 c 0.036749,-0.00475 0.078915,-5.758e-4 0.1245402,0.012919 C 3.6466829,3.672359 2.5908876,4.453764 2.7915609,3.7020996 2.7501932,3.5558694 2.8115396,3.4631444 2.9217855,3.4488851 Z M 1.2283488,3.5687744 C 0.50297223,3.6179893 1.109471,4.4547752 0.78186442,4.8162435 0.8321179,5.6601609 2.0362726,5.1753582 1.541508,4.510319 1.2525211,4.2267454 1.8938743,3.6595362 1.2283488,3.5687744 Z m 5.1009806,0.00155 C 6.9800122,3.7194032 6.072201,4.6985696 6.1536296,3.826123 6.1590154,3.7211839 6.2109086,3.5874372 6.3293294,3.5703244 Z M 5.3516113,3.6674764 C 5.9831354,3.7923849 5.1638814,4.9075004 5.1722941,3.9992391 5.1674808,3.8742821 5.2038495,3.6940584 5.3516113,3.6674764 Z M 1.1647868,3.7532593 C 1.6933004,3.8581781 0.95980542,4.6309562 1.0180257,3.9465291 1.0233491,3.8636274 1.0676923,3.7608862 1.1647868,3.7532593 Z M 0.51624756,3.8653971 a 6.3499998,6.3499998 0 0 0 -0.07028,0.1896525 c 0.043797,0.054353 0.18343543,-0.0138 0.07028,-0.1896525 z M 12.355835,4.2927612 c -0.573148,0.3338409 -0.547915,1.8357046 0.235644,1.6846517 0.03441,-0.019817 0.06393,-0.043761 0.09095,-0.069763 a 6.3499998,6.3499998 0 0 0 -0.04754,-0.4619873 c -0.04819,0.3037092 -0.417834,0.6114557 -0.412378,-0.00103 -0.0048,-0.1249934 0.03148,-0.3051585 0.179317,-0.3317627 0.101577,0.020071 0.162438,0.067305 0.198437,0.1260905 a 6.3499998,6.3499998 0 0 0 -0.05478,-0.2723348 c -0.09518,-0.034239 -0.208219,-0.02801 -0.336413,0.044958 -0.115209,-0.2578393 0.16543,-0.4189658 0.190686,-0.5865275 A 6.3499998,6.3499998 0 0 0 12.355835,4.2927612 Z M 0.35501709,4.3873291 C 0.31946916,4.664457 0.63691453,5.3695762 0.10231934,5.2740967 A 6.3499998,6.3499998 0 0 0 0.09043376,5.3273234 C 0.29785704,5.8858805 0.95283133,4.8478057 0.54001872,4.5180705 0.4938365,4.4567971 0.42875288,4.4095258 0.35501709,4.3873291 Z M 11.735718,4.4198853 c -0.399624,-0.019492 -0.713601,0.1507581 -0.599964,0.5767089 -0.0697,0.417003 0.04782,0.5166717 0.412895,0.2713013 0.30756,0.2536926 -0.07448,1.0612438 -0.329179,0.5265829 C 10.831343,6.368143 12.174137,6.2565241 11.864909,5.5789876 11.92663,5.1967561 11.447877,5.0074315 11.318689,5.0482707 11.125301,4.433913 11.769223,4.8493967 11.735718,4.4198853 Z M 1.2035441,4.473112 C 1.8531382,4.6230888 0.94597936,5.6002473 1.0278442,4.7283936 1.0331549,4.6235576 1.0850604,4.48982 1.2035441,4.473112 Z m 9.6552249,0.079582 c -0.456539,0.2117817 -0.05193,1.0461827 -0.15503,1.5037842 0.157852,0.3193007 -0.514308,0.8463884 0.117306,0.6392374 0.223164,-0.6658235 -0.0023,-1.4372009 0.03772,-2.1430216 z M 9.9740682,4.6880859 C 9.5314884,4.6616812 9.6281575,5.1272446 9.6469564,5.4565145 c 0.012244,0.3465486 0.024447,0.6931811 0.03669,1.0397298 0.4184316,-0.1553776 -0.05234,-0.9936469 0.6986656,-1.0045898 0.283716,-0.2215644 0.0847,-0.8543904 -0.312126,-0.791683 -0.03448,-0.00632 -0.06661,-0.010125 -0.096118,-0.011886 z m 0.056844,0.2056722 c 0.02083,0.00207 0.04281,0.00666 0.06563,0.013436 C 10.696829,5.118034 9.6412497,5.8991529 9.8422933,5.1474894 9.7943132,4.9772719 9.885112,4.8792509 10.030912,4.8937581 Z M 8.2785645,5.0141642 C 7.5531965,5.0634478 8.1596454,5.900127 7.8320801,6.2616333 7.8823736,7.1058596 9.0865561,6.6208845 8.5917236,5.9557088 8.3025222,5.6724555 8.9441933,5.1040083 8.2785645,5.0141642 Z M 7.3716431,5.1805623 C 6.6284051,5.3235929 6.6705832,6.9038513 7.3855957,6.9189575 7.9558212,6.6748279 7.6897112,5.5547199 7.088973,5.9195353 6.9826548,5.5003967 7.3923293,5.3072801 7.6289917,5.4508301 7.6282691,5.3220047 7.4906932,5.2044015 7.3716431,5.1805623 Z m 0.8433593,0.018087 c 0.5286785,0.1049211 -0.2053148,0.877979 -0.146761,0.1932698 0.00532,-0.082904 0.049671,-0.1856368 0.146761,-0.1932698 z M 6.4884928,5.3025187 C 5.918271,5.2618726 5.8991248,6.0406599 6.086967,6.3293294 6.7753637,5.7292368 6.5032872,7.3785032 6.0177205,6.7551432 5.9326415,7.3444357 6.9838293,7.0612525 6.7386068,6.4817749 6.8003632,6.0997656 6.3225274,5.9100562 6.1929036,5.9505412 5.9780148,5.371577 6.6454436,5.7318141 6.6099325,5.3221558 6.5669149,5.3117778 6.5265076,5.3052285 6.4884928,5.3025187 Z M 5.7324666,5.4549642 C 5.2759717,5.66674 5.6804876,6.501152 5.5774373,6.9587484 5.7358025,7.2778987 5.0641702,7.8050227 5.6952596,7.5979858 5.9192646,6.9466201 5.6922386,6.1492625 5.7324666,5.4549642 Z M 4.8477661,5.5903564 C 4.405257,5.564059 4.5018313,6.0295241 4.5206543,6.358785 4.5328973,6.7053336 4.5451016,7.0519662 4.5573446,7.3985148 4.9765323,7.2437198 4.5049186,6.4046196 5.2565267,6.393925 5.5393772,6.172478 5.3413523,5.5387841 4.9438843,5.602242 4.9094118,5.5959297 4.8772667,5.5921096 4.8477661,5.5903564 Z m 0.056844,0.2056722 c 0.020832,0.00207 0.042803,0.00667 0.065629,0.013436 C 5.5714057,6.0195021 4.5154822,6.801836 4.7159912,6.0497599 4.6678393,5.8795201 4.7587885,5.7815255 4.9046101,5.7960286 Z M 3.1522624,5.9164347 C 2.4267264,5.9658875 3.0337964,6.802628 2.7062948,7.1644206 2.7567884,8.0087956 3.9611379,7.5226698 3.4659383,6.8579793 3.1767221,6.5749286 3.8179815,6.006372 3.1522624,5.9164347 Z m 5.1014974,0.00207 C 8.9035036,6.0682262 7.9964951,7.0461998 8.0780599,6.1743001 8.0833055,6.0693652 8.135105,5.9352157 8.2537598,5.9185018 Z M 7.2755249,6.0151367 C 7.9079111,6.1395089 7.0873997,7.2562774 7.0962077,6.3474162 7.0916469,6.2225611 7.1276587,6.0417579 7.2755249,6.0151367 Z M 2.245341,6.0828328 C 1.5029841,6.2271603 1.5442963,7.805185 2.2592936,7.821228 2.8294216,7.5769546 2.5637814,6.457243 1.9626709,6.8223226 1.8559685,6.4028709 2.2663014,6.209196 2.5032064,6.3525838 2.5022817,6.2236485 2.3644696,6.1066653 2.245341,6.0828328 Z m 0.8433594,0.018087 C 3.6178913,6.2055503 2.8834645,6.9791326 2.9419393,6.2941895 2.947262,6.2112873 2.9916058,6.1085467 3.0887004,6.1009198 Z m -1.60507,0.1235067 C 1.0839838,6.2049874 0.76964565,6.3749405 0.88366699,6.8011353 0.81416183,7.217494 0.93184964,7.319048 1.2965617,7.0724365 1.604242,7.3261178 1.2222518,8.1337136 0.96738281,7.5990194 0.57905432,8.1723391 1.921908,8.061252 1.6128215,7.3835286 1.6745447,7.0013039 1.1962338,6.8124255 1.0666016,6.8528117 0.85171301,6.2738471 1.5191406,6.6340858 1.4836304,6.2244265 Z M 0.60668132,6.3572347 C 0.14921542,6.5683358 0.55474788,7.403481 0.45165202,7.8610189 0.49677637,8.111696 0.20828357,8.8202497 0.64853923,8.380367 0.69094374,7.7204679 0.61148742,7.0284381 0.60668132,6.3572347 Z M 0.01343587,6.5375854 A 6.3499998,6.3499998 0 0 0 0.03875732,6.891569 l 0.03669027,0.4128947 a 6.3499998,6.3499998 0 0 0 0.0067179,0.028939 C 0.31437256,7.1354069 0.31543708,6.6709082 0.01343587,6.5375854 Z M 3.1274577,6.8207723 c 0.6506,0.1489372 -0.257241,1.1281759 -0.1756999,0.2557983 0.00539,-0.104942 0.05727,-0.2386789 0.1756999,-0.2557983 z M 2.1497396,6.9174072 C 2.781313,7.0427886 1.9619002,8.1576686 1.9704224,7.2491699 1.9655891,7.1241663 2.0018964,6.9440104 2.1497396,6.9174072 Z m 10.2479534,0.057878 c -0.697588,0.062526 -0.169547,0.875571 -0.419613,1.254187 -0.06013,0.3178238 0.430635,0.640336 0.240296,0.1322917 -0.04352,-0.2194715 0.155445,-0.4375721 0.317293,-0.6500895 a 6.3499998,6.3499998 0 0 0 0.109037,-0.5891113 c -0.04035,-0.047018 -0.09476,-0.093608 -0.173633,-0.1395264 z m -0.906922,0.1669149 c -0.742709,0.1434919 -0.701161,1.7229913 0.01395,1.7383952 0.573137,-0.239853 0.29921,-1.3789395 -0.293522,-0.9875366 -0.105875,-0.338219 0.233077,-0.702743 0.484725,-0.4309815 0.159256,-0.108304 -0.104067,-0.3049494 -0.205156,-0.3198771 z m 0.84336,0.018087 c 0.528821,0.1046674 -0.205629,0.8782963 -0.146761,0.1932698 0.0053,-0.082803 0.04962,-0.1860526 0.146761,-0.1932698 z m -1.72651,0.1038696 c -0.570223,-0.040658 -0.589319,0.7382226 -0.401526,1.0268107 0.687769,-0.6006624 0.417287,1.0482747 -0.06873,0.4258138 -0.08389,0.5892533 0.964953,0.3047203 0.720369,-0.2738851 0.06169,-0.3822489 -0.41653,-0.5715828 -0.545703,-0.530717 C 10.117997,7.2973697 10.761274,7.712728 10.72906,7.2837937 10.68604,7.2734147 10.64563,7.2668677 10.60762,7.2641567 Z M 9.8521118,7.4166016 C 9.3946589,7.6276541 9.8001649,8.4628992 9.6970825,8.9203857 9.8549974,9.2398452 9.1825564,9.7660722 9.814388,9.5596232 10.037834,8.908301 9.8117196,8.1108817 9.8521118,7.4166016 Z M 8.9674113,7.5519938 C 8.5250881,7.5253927 8.6217821,7.9915644 8.6402995,8.3204224 L 8.676473,9.3601522 C 9.0959148,9.2055047 8.6233542,8.3660717 9.3751383,8.3555623 9.6593421,8.1341411 9.4604622,7.5000633 9.0630127,7.5638794 9.0285505,7.5575364 8.9968995,7.5537672 8.9674113,7.5519938 Z m 0.056327,0.2056722 c 0.020843,0.00208 0.042783,0.00666 0.065629,0.013436 C 9.6906759,7.9806467 8.6343735,8.7634985 8.8351196,8.0113973 8.7868934,7.840999 8.8778368,7.7430747 9.0237383,7.757666 Z M 7.2713908,7.8780721 C 6.5461605,7.9269352 7.1528662,8.7640185 6.8254232,9.1255412 6.8755723,9.9697389 8.0798292,9.4844358 7.58455,8.8196167 7.2953288,8.5361986 7.9378165,7.9680891 7.2713908,7.8780721 Z m 4.1232622,0.098702 c 0.632151,0.1243113 -0.187331,1.240202 -0.179317,0.3317627 -0.0047,-0.1246904 0.03125,-0.3057442 0.179317,-0.3317627 z M 6.3644694,8.0444702 C 5.6220532,8.1882883 5.6639389,9.767809 6.3789388,9.7828654 6.9521436,9.5427736 6.6776203,8.4040153 6.0848999,8.7953288 5.9792746,8.4564999 6.3189275,8.0927089 6.5701416,8.3643473 6.7294906,8.2556142 6.4655735,8.0595514 6.3644694,8.0444702 Z M 7.2083455,8.062557 C 7.737185,8.1679641 7.001564,8.9404946 7.0610677,8.2558268 7.0667103,8.1730012 7.1114903,8.0703024 7.2083455,8.062557 Z M 5.4818359,8.1664266 C 4.9116111,8.125756 4.8924614,8.9047404 5.0803101,9.1932373 5.7680389,8.5929096 5.4964812,10.242213 5.0110636,9.6190511 4.9263034,10.208613 5.9772594,9.9244693 5.7319499,9.345166 5.7936347,8.9628928 5.3147405,8.7736243 5.18573,8.8144491 4.9716191,8.235879 5.6370524,8.594662 5.6032756,8.1860636 5.5602577,8.1756825 5.5198509,8.169138 5.4818359,8.1664266 Z M 4.7258097,8.3188721 C 4.2693148,8.5306486 4.6738308,9.3650595 4.5707804,9.8226562 4.7294768,10.142333 4.0562419,10.668342 4.6880859,10.461894 4.9117421,9.8106558 4.6853594,9.0131235 4.7258097,8.3188721 Z M 3.8411092,8.4542643 C 3.3985296,8.42786 3.4951986,8.893423 3.5139974,9.2226929 l 0.03669,1.0397301 C 3.9691179,10.107045 3.4983459,9.2687756 4.249353,9.2578328 4.5330709,9.0362739 4.3340417,8.4034413 3.9372274,8.4661499 3.9027485,8.4598283 3.8706145,8.4560246 3.8411092,8.4542643 Z m 0.056844,0.2056722 c 0.020832,0.00207 0.042803,0.00667 0.065629,0.013436 C 4.5637427,8.8835171 3.5087125,9.6651688 3.7093343,8.9136678 3.6611813,8.7434263 3.7521309,8.6454333 3.8979532,8.6599365 Z M 2.1456055,8.7803426 C 1.419773,8.8293326 2.026965,9.6663887 1.6991211,10.027812 1.749446,10.871873 2.9545552,10.386892 2.4592814,9.7218872 2.1693973,9.4387237 2.8117208,8.8702936 2.1456055,8.7803426 Z m 5.1009806,0.00155 C 7.8969213,8.93054 6.990113,9.9104378 7.071403,9.038208 7.0767822,8.9334015 7.1282787,8.7992158 7.2465861,8.7818926 Z M 6.268868,8.8790446 C 6.9008814,9.0036365 6.0805293,10.11929 6.0895508,9.2108073 6.084992,9.0861682 6.120768,8.9050352 6.268868,8.8790446 Z M 1.1456665,8.928654 C 0.89661983,8.9157057 0.81382926,9.2269335 0.81855469,9.4361165 a 6.3499998,6.3499998 0 0 0 0.091984,0.1679484 c 0.00983,-0.00966 0.0201817,-0.023631 0.0310059,-0.043408 C 0.7938548,8.9277002 1.8237616,9.4763136 1.3523722,8.9953166 L 1.2919108,8.9596598 1.2386841,8.9467407 C 1.2054093,8.9358697 1.1744398,8.9301499 1.1456665,8.928654 Z m 0.936377,0.036174 C 2.610557,9.0697462 1.8770621,9.8425243 1.9352824,9.1580973 1.9406057,9.0751956 1.984949,8.9724544 2.0820435,8.964828 Z M 1.2722738,9.5988973 C 0.67987347,9.7334363 1.4825003,9.8024774 1.3689087,10.15752 1.5678067,10.904986 1.693083,9.5283105 1.2722738,9.5988973 Z m 0.848527,0.085783 C 2.7714332,9.8339937 1.8633813,10.812387 1.9451009,9.9399618 1.9504119,9.8351254 2.0023178,9.7013904 2.1208008,9.6846803 Z m 9.5684082,0.095085 c -0.155258,-0.0041 -0.146188,0.096193 -0.103353,0.144694 A 6.3499998,6.3499998 0 0 0 11.688692,9.787 c -1.16e-4,-0.00306 6.78e-4,-0.00407 5.17e-4,-0.00723 z M 10.86342,9.89552 c -0.558087,-0.0093 -0.270669,0.986429 -0.233578,1.132231 a 6.3499998,6.3499998 0 0 0 0.04134,-0.04134 c 0.018,-0.01937 0.03674,-0.03855 0.05788,-0.05788 a 6.3499998,6.3499998 0 0 0 0.238745,-0.238745 c -8.9e-4,-0.02768 -0.05091,-0.0377 -0.186552,-0.02015 -0.178001,-0.556014 0.199802,-0.6769311 0.479041,-0.309542 a 6.3499998,6.3499998 0 0 0 0.121956,-0.163297 c -0.02254,-0.167815 -0.200619,-0.3109128 -0.394808,-0.2852543 -0.04528,-0.01021 -0.08666,-0.015397 -0.124023,-0.01602 z m -1.6675989,0.330212 c -0.7255403,0.04937 -0.1185731,0.8865 -0.4464843,1.247986 0.050332,0.844336 1.2553952,0.35868 0.7601603,-0.306441 -0.2900547,-0.282938 0.3521712,-0.851698 -0.313676,-0.941545 z M 8.2888997,10.392131 C 7.5461331,10.535693 7.5878013,12.11506 8.3028524,12.130526 8.8731937,11.886514 8.607301,10.765977 8.0062297,11.131104 7.8995762,10.711997 8.3095708,10.518878 8.5462484,10.662398 8.5455247,10.533567 8.4079574,10.415964 8.2888997,10.392131 Z m 0.8433594,0.01809 c 0.5285168,0.104909 -0.2049592,0.8777 -0.1467611,0.19327 0.00533,-0.08291 0.049676,-0.185628 0.1467611,-0.19327 z m -1.7265096,0.10387 c -0.5702197,-0.04066 -0.5893265,0.738216 -0.4015259,1.026811 0.6883546,-0.600144 0.4165927,1.048857 -0.06873,0.425813 -0.083963,0.589534 0.9651189,0.305079 0.7203694,-0.273885 0.061638,-0.382116 -0.4162458,-0.57146 -0.5457031,-0.530717 -0.1939717,-0.614754 0.4499739,-0.198669 0.4170288,-0.628385 -0.043017,-0.01038 -0.083425,-0.01693 -0.1214396,-0.01964 z m -0.7555094,0.152445 c -0.4574668,0.21111 -0.05193,1.046244 -0.1550293,1.503785 0.1268571,0.241092 -0.131766,0.467354 -0.1214396,0.528133 a 6.3499998,6.3499998 0 0 0 0.1669148,-0.01189 c 0.00928,-0.0026 0.012496,-0.0027 0.022738,-0.0057 0.3221198,-0.442841 0.023322,-1.379478 0.086816,-2.014348 z m -0.8847005,0.135393 c -0.4423145,-0.0262 -0.3456469,0.439394 -0.3271119,0.768428 0.01214,0.346546 0.024033,0.693183 0.036174,1.03973 0.4193494,-0.154661 -0.052947,-0.993955 0.6986654,-1.00459 0.2838707,-0.221519 0.085494,-0.85497 -0.3121256,-0.791683 -0.034461,-0.0063 -0.066114,-0.01014 -0.095601,-0.01188 z m 0.056327,0.205672 c 0.020831,0.0021 0.042804,0.0067 0.065629,0.01344 0.6011658,0.210036 -0.4547559,0.992372 -0.254248,0.240295 -0.048152,-0.17024 0.042799,-0.268229 0.188619,-0.253731 z M 3.9677162,11.12439 c -0.4696031,0.06625 -0.3706588,1.322447 0.1312581,0.941544 0.1308056,-0.02399 0.1928938,0.225312 0.2635498,0.302824 a 6.3499998,6.3499998 0 0 0 0.055811,0.02067 c 0.019372,-0.0094 0.040309,-0.03419 0.064079,-0.08423 -0.5007415,-0.384189 0.3128678,-1.004345 -0.4128947,-1.177189 -0.036406,-0.007 -0.070496,-0.008 -0.1018025,-0.0036 z m 5.2032999,0.0057 c 0.6507798,0.149375 -0.2578015,1.128509 -0.1756998,0.255798 0.00531,-0.104836 0.057211,-0.239096 0.1756998,-0.255798 z m -0.9782348,0.09664 c 0.6322102,0.124324 -0.1870975,1.240892 -0.1793172,0.332279 -0.00464,-0.124876 0.031482,-0.305635 0.1793172,-0.332279 z m -5.15059,0.04186 c -0.2561384,0.02973 -0.3295112,0.618009 0.00207,0.251664 0.3615834,0.205396 0.5415311,-0.02088 0.1183391,-0.225826 -0.043388,-0.02296 -0.083815,-0.03008 -0.1204061,-0.02584 z m 0.9642822,0.04392 c 0.5288811,0.105175 -0.206537,0.877988 -0.1472778,0.19327 0.00558,-0.08291 0.050212,-0.185555 0.1472778,-0.19327 z" />
  </g>
  <g
     id="layer3"
     style="fill:#cccccc"
     transform="rotate(-44.701688,8.2168508,9.1289681)">
    <path
       id="path1820"
       style="display:inline;fill:#4d4d4d;stroke-width:0.264583"
       d="m 10.549781,3.747374 c -0.01249,-0.00132 -0.02462,-0.00269 -0.03693,-0.00456 -0.01316,-0.002 -0.02693,-0.00411 -0.03986,-0.00674 -0.01294,-0.00264 -0.02535,-0.00532 -0.03805,-0.00857 -0.0127,-0.00325 -0.02526,-0.00728 -0.0377,-0.011131 -0.01244,-0.00385 -0.02517,-0.00779 -0.03734,-0.01223 -0.01217,-0.00444 -0.02437,-0.00905 -0.03625,-0.014062 -0.02553,-0.010767 -0.04661,-0.021191 -0.06887,-0.033259 -0.01125,-0.00609 -0.02244,-0.012573 -0.03335,-0.019193 -0.0112,-0.0068 -0.0353,-0.022141 -0.06344,-0.043153 -0.01018,-0.0076 -0.02029,-0.01515 -0.03008,-0.02323 -0.0098,-0.00808 -0.01887,-0.016536 -0.02827,-0.025066 -0.0094,-0.00853 -0.01892,-0.017194 -0.02791,-0.026164 C 10.057157,3.5054903 10.027558,3.4745978 9.9971,3.433802 9.9833891,3.4154331 9.9650007,3.3877517 9.95475,3.370806 9.9408435,3.3478875 9.9263233,3.3205291 9.917856,3.303032 9.912256,3.29146 9.907326,3.279911 9.902326,3.268033 9.897356,3.256154 9.892287,3.244101 9.887887,3.231932 9.886827,3.229002 9.885527,3.225742 9.884547,3.222812 l -0.5287509,1.95e-4 c 0.1085249,0.30884 0.4017135,0.5292395 0.7485629,0.5292395 l 0.44982,-5.15e-4 z" />
    <path
       id="rect1510-5"
       style="display:inline;fill:#cccccc;stroke-width:0.264583"
       d="m 8.2523166,0.35624921 a 1.9840835,1.9840835 0 0 0 -0.529311,0.31372194 l 2.16e-5,1.75873025 c 0,0.041226 0.0034,0.081771 0.0094,0.1212681 0.006,0.039497 0.014617,0.078006 0.026179,0.115334 0.00385,0.012442 0.00781,0.024674 0.01225,0.036843 0.00888,0.024338 0.019217,0.048319 0.030336,0.071463 0.016679,0.034715 0.035802,0.0678 0.057157,0.09946 0.014236,0.021107 0.02948,0.041566 0.04563,0.061152 0.016151,0.019586 0.033152,0.038439 0.051086,0.056373 0.017933,0.017934 0.036589,0.03508 0.056175,0.051231 0.019586,0.01615 0.040153,0.031122 0.06126,0.045358 0.1266429,0.085418 0.2794137,0.1350817 0.4443141,0.1350817 l 0.5291182,1.684e-4 c -0.4397353,0 -0.7937882,-0.3538272 -0.7937882,-0.7935625 z" />
    <path
       id="path2263"
       style="display:inline;fill:#808080;stroke-width:0.262205"
       d="m 10.215392,3.751709 a 1.9840835,1.9840835 0 0 1 -0.137976,0.1002523 1.9840835,1.9840835 0 0 1 -0.1462442,0.08785 1.9840835,1.9840835 0 0 1 -0.153479,0.074931 1.9840835,1.9840835 0 0 1 -0.1591635,0.061495 v 7.7767857 c 0,0.0092 -6.502e-4,0.01796 -0.00155,0.02687 -9e-4,0.0089 -0.00186,0.01773 -0.00362,0.02636 -0.00176,0.0086 -0.00415,0.01754 -0.00672,0.02584 -0.00257,0.0083 -0.00545,0.01637 -0.00878,0.02429 -0.00334,0.0079 -0.00731,0.01524 -0.011369,0.02274 -0.00406,0.0075 -0.00817,0.01519 -0.012919,0.02222 -0.00475,0.007 -0.010119,0.01363 -0.015503,0.02015 -0.00538,0.0065 -0.011075,0.01263 -0.017053,0.0186 -0.00598,0.006 -0.012075,0.01167 -0.018603,0.01705 -0.00653,0.0054 -0.013118,0.01076 -0.020154,0.0155 -0.00704,0.0047 -0.014722,0.0089 -0.022221,0.01292 -0.0075,0.0041 -0.014819,0.008 -0.022738,0.01137 -0.00792,0.0033 -0.015993,0.0062 -0.024288,0.0088 -0.0083,0.0026 -0.017211,0.005 -0.025838,0.0067 -0.00863,0.0018 -0.017439,0.0027 -0.026355,0.0036 -0.00892,9e-4 -0.017711,0.0016 -0.026872,0.0016 H 9.883113 c 0.146579,0 0.264583,-0.115977 0.264583,-0.259933 V 4.2193807 a 1.9840835,1.9485742 0 0 0 0.787574,-0.487288 m 0.529167,0 A 1.9840835,1.9485742 0 0 0 12.026656,2.3745321 1.9840835,1.9485742 0 0 0 10.506852,0.48162435 v 0 a 1.9840835,1.9840835 0 0 1 0.159164,0.10128581 1.9840835,1.9840835 0 0 1 0.163814,0.13022461 1.9840835,1.9840835 0 0 1 0.149345,0.14727783 1.9840835,1.9840835 0 0 1 0.132809,0.1617472 1.9840835,1.9840835 0 0 1 0.114721,0.1751831 1.9840835,1.9840835 0 0 1 0.09612,0.186552 1.9840835,1.9840835 0 0 1 0.07597,0.1953369 1.9840835,1.9840835 0 0 1 0.05426,0.2020548 1.9840835,1.9840835 0 0 1 0.03359,0.2067058 1.9840835,1.9840835 0 0 1 0.01085,0.2092895 1.9840835,1.9840835 0 0 1 -0.01085,0.197404 1.9840835,1.9840835 0 0 1 -0.03049,0.1953369 1.9840835,1.9840835 0 0 1 -0.04961,0.1917196 1.9840835,1.9840835 0 0 1 -0.06873,0.1855183 1.9840835,1.9840835 0 0 1 -0.05995,0.1297079 1.9840835,1.9840835 0 0 1 -0.06873,0.1255737 1.9840835,1.9840835 0 0 1 -0.09819,0.1472778 1.9840835,1.9840835 0 0 1 -0.110588,0.1379761 1.9840835,1.9840835 0 0 1 -0.122473,0.1276408 1.9840835,1.9840835 0 0 1 -0.133325,0.116272" />
    <path
       id="path1871"
       style="display:inline;fill:#f9f9f9;stroke-width:0.264583"
       d="M 10.979093,0.8605724 C 10.837499,0.70536878 10.672153,0.57363857 10.489235,0.47030443 l -3.4e-5,1.95861127 c 0,0.013742 -2.35e-4,0.026999 -8.85e-4,0.040565 -0.0021,0.040698 -0.0072,0.080745 -0.01509,0.1195684 -0.02049,0.101991 -0.0602,0.1966052 -0.11914,0.2841803 -0.02363,0.035132 -0.04564,0.062221 -0.07078,0.089895 -0.0085,0.00939 -0.01721,0.01821 -0.02617,0.027177 -0.09729,0.09729 -0.219669,0.1694795 -0.3570332,0.2057591 0.0019,5.019e-4 0.00395,9.411e-4 0.00585,0.00143 0.0127,0.00325 0.025111,0.00666 0.038051,0.0093 -0.01294,-0.00263 -0.025715,-0.00568 -0.038415,-0.00894 -0.0019,-4.881e-4 -0.00359,-0.0013 -0.00549,-0.0018 -0.00716,0.00189 -0.014654,0.00354 -0.021898,0.00523 0.0032,0.010092 0.00606,0.020005 0.00966,0.029914 0.00539,0.014906 0.023917,0.059705 0.029605,0.071467 0.00743,0.015351 0.021921,0.043098 0.036894,0.067775 0.0066,0.010909 0.01351,0.021496 0.02063,0.032049 0.00783,0.011632 0.035275,0.048669 0.045262,0.060788 0.0098,0.011839 0.04025,0.045545 0.05145,0.056736 0.0029,0.00288 0.02603,0.025695 0.05654,0.050863 0.0098,0.00808 0.01954,0.015262 0.02972,0.022866 0.0326,0.024334 0.05861,0.040224 0.06344,0.043153 0.01091,0.00662 0.0221,0.013098 0.03335,0.019193 0.02336,0.012668 0.0412,0.021808 0.06923,0.033623 0.02221,0.00937 0.05371,0.020611 0.07322,0.026659 0.02172,0.00672 0.05546,0.01513 0.0761,0.019341 0.01294,0.00263 0.02597,0.00474 0.03913,0.00674 0.03334,0.00506 0.0454,0.00624 0.08007,0.00798 0.01357,6.832e-4 0.02719,0.00125 0.04093,0.00125 l 0.111086,1.524e-4 C 10.929585,3.6044702 11.086808,3.4252008 11.20876,3.222488 l 3.67e-4,3.635e-4 c 0.04904,-0.082026 0.09208,-0.1674873 0.128806,-0.2557172 C 11.441962,2.7237989 11.49626,2.462111 11.497631,2.1974749 11.497495,1.7027799 11.312561,1.2259794 10.979093,0.8605724 Z M 7.7229904,0.66704793 C 7.2656097,1.0436795 7.0004845,1.6050117 7.0001338,2.197505 c 0.00119,0.9084206 0.6191704,1.7000003 1.500157,1.9215674 L 8.4999974,11.85303 c 0,0.146579 0.1182597,0.264276 0.2648384,0.264276 l 0.589048,5.87e-4 c 0.1465789,0 0.2646395,-0.118627 0.2646395,-0.265206 l 7.27e-5,-7.7763438 c 0.21614,-0.0731 0.418052,-0.1829334 0.596855,-0.3246706 l -0.111086,-1.525e-4 c -0.01374,0 -0.02737,1.62e-4 -0.04093,-5.177e-4 -0.02691,-7.057e-4 -0.0534,-0.00581 -0.080068,-0.00871 -0.013166,-0.002 -0.026193,-0.0041 -0.039134,-0.00674 C 9.92014,3.7306524 9.87937,3.7212344 9.831154,3.7036144 9.818985,3.6991744 9.806784,3.6945544 9.794905,3.6895524 9.777675,3.6822886 9.7376821,3.6643866 9.692682,3.6370994 9.6787214,3.6286276 9.6410951,3.6034381 9.628877,3.5943124 9.6076338,3.5804173 9.589957,3.5620996 9.570525,3.5460164 9.5506436,3.5301144 9.5347537,3.5101317 9.516894,3.4922154 9.4984992,3.4744219 9.4845176,3.4528996 9.468353,3.4332704 9.4477444,3.4056631 9.4386766,3.3923843 9.425272,3.3702784 9.4027508,3.3331661 9.3872084,3.3015725 9.372848,3.2675054 9.367838,3.2556274 9.362847,3.2435734 9.358409,3.2314044 9.354799,3.2214944 9.351979,3.2115814 9.348749,3.2014904 9.29018,3.2151734 9.2293734,3.2225364 9.1665178,3.2225364 L 8.5168154,3.222264 C 8.3519144,3.222264 8.1991445,3.1726 8.0725013,3.0871823 8.0513943,3.0729463 8.0308273,3.0579743 8.0112413,3.0418243 7.9916553,3.0256737 7.9729994,3.008528 7.9550664,2.990594 7.9256073,2.9611349 7.8911208,2.9216557 7.8583506,2.873069 7.8369956,2.841408 7.8178726,2.808324 7.8011936,2.773609 7.7780383,2.7254137 7.7668664,2.6919928 7.7586076,2.665303 7.7470456,2.627976 7.7384306,2.589466 7.7324286,2.549969 c -0.006,-0.039497 -0.0094,-0.080042 -0.0094,-0.1212681 z" />
    <rect
       style="fill:#999999;stroke-width:0.132738"
       id="rect2181"
       width="0.71906394"
       height="3.9681671"
       x="8.6561661"
       y="7.740068"
       rx="0.13229167"
       ry="0.53274208" />
    <rect
       style="display:inline;fill:#cccccc;stroke-width:0.119819"
       id="rect2184"
       width="0.58590394"
       height="3.9681671"
       x="8.7893257"
       y="7.740068"
       rx="0.10779322"
       ry="0.53274208" />
  </g>
  <g
     id="layer2"
     transform="rotate(44.049411,4.5843778,10.503355)">
    <path
       id="path865"
       style="fill:#cccccc;stroke-width:0.092246"
       d="M 3.6219513,1.3188605 C 3.4910106,1.6952308 3.3600699,2.071601 3.2291292,2.4479712 c -0.2618813,0 -0.5237627,0 -0.7856441,0 C 2.3125445,2.071601 2.1816038,1.6952308 2.0506631,1.3188605 2.1816038,0.94249026 2.3125445,0.56612004 2.4434851,0.1897498 c 0.2618814,0 0.5237628,0 0.7856441,0 0.1309407,0.37637024 0.2618814,0.75274046 0.3928221,1.1291107 z m -1.19844,-0.3068447 c 0.2751973,0 0.5503945,0 0.8255918,0 0,2.0240316 0,4.0480633 0,6.0720948 -0.2751972,0 -0.5503945,0 -0.8255918,0 0,-2.0240315 0,-4.0480632 0,-6.0720948 z" />
    <path
       id="path865-6"
       style="fill:#ffffff;stroke-width:0.0857643"
       d="m 3.4088952,1.3188605 c -0.113186,0.3763703 -0.226372,0.7527405 -0.339558,1.1291107 -0.226372,0 -0.452744,0 -0.6791161,0 -0.113186,-0.3763702 -0.226372,-0.7527404 -0.339558,-1.1291107 0.113186,-0.37637024 0.226372,-0.75274046 0.339558,-1.1291107 0.2263721,0 0.4527441,0 0.6791161,0 0.113186,0.37637024 0.226372,0.75274046 0.339558,1.1291107 z M 2.3729556,1.0120158 c 0.2378824,0 0.4757647,0 0.7136471,0 0,2.0240316 0,4.0480633 0,6.0720948 -0.2378824,0 -0.4757647,0 -0.7136471,0 0,-2.0240315 0,-4.0480632 0,-6.0720948 z" />
    <path
       id="rect406"
       style="fill:#803300;stroke-width:0.305256"
       d="m 4.1614194,8.2692627 c -0.084601,0.00431 -0.1728826,-0.00853 -0.2552778,0.00621 -0.090323,0.096171 -0.08889,0.2438492 -0.106454,0.367928 -0.011896,0.3935187 -0.00287,0.787557 -0.00569,1.1813 0.00162,0.6624883 -0.0033,1.3250903 0.00259,1.9875043 0.014166,0.10275 0.00724,0.288526 0.076671,0.334823 0.2296685,-0.160042 0.3029655,-0.457751 0.2881599,-0.723945 5e-7,-1.051273 1.1e-6,-2.1025448 1.7e-6,-3.1538171 z" />
    <path
       id="path936"
       style="fill:#ffb380;stroke-width:0.305256"
       d="m 1.6148341,12.049131 c 0.050561,-0.275393 0.025328,-0.556597 0.03151,-0.834979 -0.00123,-0.831232 0.00249,-1.6625285 -0.0019,-2.4937182 C 1.6317325,8.5719582 1.6341357,8.4033114 1.5404151,8.279859 1.5114235,8.2683183 1.4212162,8.2463154 1.435,8.2996431 c 5.376e-4,1.0863972 -0.00108,2.1728219 8.084e-4,3.2592019 0.0074,0.176165 0.063772,0.354542 0.1790257,0.490286 z" />
    <path
       id="path1040"
       style="fill:#ff7f2a;stroke-width:0.305256"
       d="m 1.9140951,6.9773519 c -0.3736464,0.015763 -0.553013,0.4353804 -0.5291667,0.7636332 0,0.1760926 0,0.3521851 0,0.5282776 0.1423208,-0.042961 0.1739281,0.1327858 0.188624,0.2346078 0.042984,0.4383884 0.014473,0.8806138 0.02273,1.3208131 -0.00362,0.6795224 0.00756,1.3593904 -0.0062,2.0386764 -0.1182316,0.256698 0.2021622,0.38666 0.4129478,0.360706 0.5960816,-0.0029 1.1926941,0.0058 1.7884401,-0.0044 0.3160895,-0.01653 0.02301,-0.377867 0.1023607,-0.574254 C 3.895501,10.661801 3.890461,9.6780781 3.896421,8.6945387 3.9272818,8.5708564 3.8835619,8.2917794 4.0557634,8.2692649 4.1306893,8.250994 4.2952314,8.3223393 4.2612495,8.1951606 4.2451347,7.8551782 4.3273453,7.4759035 4.1066003,7.1831977 3.9806657,6.9799367 3.7372689,6.9664606 3.5245908,6.9773538 c -0.5368319,-6e-7 -1.0736638,-1.3e-6 -1.6104957,-1.9e-6 z" />
    <rect
       style="fill:#aa4400;stroke-width:0.132738"
       id="rect406-6-7"
       width="0.71906394"
       height="3.9681671"
       x="2.8353338"
       y="8.2692347"
       rx="0.13229167"
       ry="0.53274208" />
    <rect
       style="fill:#d45500;stroke-width:0.132738"
       id="rect406-6"
       width="0.71906394"
       height="3.9681671"
       x="1.777"
       y="8.2692347"
       rx="0.13229167"
       ry="0.53274208" />
  </g>
  <metadata
     id="metadata132">
    <rdf:RDF>
      <cc:Work
         rdf:about="">
        <cc:license
           rdf:resource="http://creativecommons.org/licenses/by-sa/4.0/" />
        <dc:creator>
          <cc:Agent>
            <dc:title>PJ568</dc:title>
          </cc:Agent>
        </dc:creator>
        <dc:publisher>
          <cc:Agent>
            <dc:title>PJ568</dc:title>
          </cc:Agent>
        </dc:publisher>
        <dc:rights>
          <cc:Agent>
            <dc:title>PJ568</dc:title>
          </cc:Agent>
        </dc:rights>
        <dc:language>None</dc:language>
        <dc:title>568Tools</dc:title>
      </cc:Work>
      <cc:License
         rdf:about="http://creativecommons.org/licenses/by-sa/4.0/">
        <cc:permits
           rdf:resource="http://creativecommons.org/ns#Reproduction" />
        <cc:permits
           rdf:resource="http://creativecommons.org/ns#Distribution" />
        <cc:requires
           rdf:resource="http://creativecommons.org/ns#Notice" />
        <cc:requires
           rdf:resource="http://creativecommons.org/ns#Attribution" />
        <cc:permits
           rdf:resource="http://creativecommons.org/ns#DerivativeWorks" />
        <cc:requires
           rdf:resource="http://creativecommons.org/ns#ShareAlike" />
      </cc:License>
    </rdf:RDF>
  </metadata>
</svg>
